<svg width="1143" height="858" viewBox="0 0 1143 858" fill="none" xmlns="http://www.w3.org/2000/svg">
<path d="M512.48 201C509.172 201.004 506 202.321 503.66 204.661C501.32 207.002 500.004 210.176 500 213.486V313.512C500.004 316.822 501.32 319.997 503.659 322.338C505.999 324.679 509.171 325.996 512.48 326H663.521C666.83 325.996 670.002 324.679 672.341 322.337C674.681 319.996 675.996 316.822 676 313.512V213.486C675.996 210.176 674.68 207.002 672.341 204.662C670.001 202.321 666.829 201.004 663.521 201H512.48Z" fill="#6C63FF"/>
<path d="M588 313C615.062 313 637 290.838 637 263.5C637 236.162 615.062 214 588 214C560.938 214 539 236.162 539 263.5C539 290.838 560.938 313 588 313Z" fill="#3F3D56"/>
<path d="M588 292C603.464 292 616 279.24 616 263.5C616 247.76 603.464 235 588 235C572.536 235 560 247.76 560 263.5C560 279.24 572.536 292 588 292Z" fill="#E6E6E6"/>
<path d="M604.984 241C609.069 246.461 611.072 253.249 610.623 260.103C610.173 266.957 607.3 273.412 602.538 278.269C597.776 283.126 591.448 286.056 584.729 286.515C578.009 286.974 571.354 284.93 566 280.764C568.401 283.995 571.453 286.663 574.95 288.59C578.447 290.516 582.308 291.657 586.273 291.934C590.239 292.211 594.216 291.618 597.938 290.195C601.66 288.773 605.04 286.554 607.85 283.687C610.661 280.82 612.836 277.373 614.231 273.576C615.625 269.78 616.207 265.723 615.935 261.679C615.663 257.634 614.545 253.696 612.656 250.129C610.767 246.562 608.151 243.449 604.984 241V241Z" fill="white"/>
<path d="M328.035 43H148.965C142.611 43.0072 136.52 45.5343 132.027 50.027C127.534 54.5196 125.007 60.6109 125 66.9645V162.035C125.007 168.389 127.534 174.48 132.027 178.973C136.52 183.466 142.611 185.993 148.965 186H328.035C334.389 185.993 340.48 183.466 344.973 178.973C349.466 174.48 351.993 168.389 352 162.035V66.9645C351.993 60.611 349.466 54.5197 344.973 50.027C340.48 45.5343 334.389 43.0072 328.035 43V43Z" fill="#E6E6E6"/>
<path d="M148.964 62.5C147.781 62.5012 146.646 62.972 145.809 63.809C144.972 64.6459 144.501 65.7807 144.5 66.9644V162.036C144.501 163.219 144.972 164.354 145.809 165.191C146.646 166.028 147.781 166.499 148.964 166.5H328.036C329.219 166.499 330.354 166.028 331.191 165.191C332.028 164.354 332.499 163.219 332.5 162.036V66.9644C332.499 65.7807 332.028 64.6459 331.191 63.809C330.354 62.972 329.219 62.5013 328.036 62.5H148.964Z" fill="white"/>
<path d="M234.877 156.478C234.816 156.478 234.754 156.476 234.693 156.473C233.961 156.431 233.265 156.142 232.719 155.653C232.173 155.163 231.811 154.503 231.69 153.78L221.326 91.5965L212.175 128.2C212.001 128.898 211.598 129.518 211.03 129.962C210.462 130.405 209.763 130.646 209.043 130.646H196.127C195.27 130.646 194.449 130.305 193.843 129.7C193.238 129.094 192.897 128.273 192.897 127.417C192.897 126.56 193.238 125.739 193.843 125.133C194.449 124.528 195.27 124.187 196.127 124.187H206.522L218.826 74.9686C219.006 74.2485 219.429 73.6124 220.023 73.1673C220.617 72.7222 221.346 72.4954 222.088 72.525C222.829 72.5546 223.538 72.8389 224.095 73.3299C224.652 73.8209 225.022 74.4887 225.144 75.2209L235.705 138.589L244.687 107.155C244.876 106.492 245.273 105.907 245.819 105.486C246.365 105.064 247.032 104.829 247.721 104.814C248.411 104.799 249.087 105.005 249.651 105.402C250.215 105.8 250.637 106.367 250.855 107.021L256.577 124.187H267.166C268.022 124.187 268.843 124.528 269.449 125.133C270.054 125.739 270.395 126.56 270.395 127.417C270.395 128.273 270.054 129.094 269.449 129.7C268.843 130.305 268.022 130.646 267.166 130.646H254.249C253.572 130.646 252.911 130.432 252.361 130.036C251.812 129.64 251.4 129.081 251.186 128.438L248.029 118.965L237.98 154.136C237.787 154.81 237.38 155.404 236.82 155.826C236.26 156.249 235.578 156.478 234.877 156.478Z" fill="#6C63FF"/>
<path d="M274.602 136.967C279.849 136.967 284.102 132.714 284.102 127.467C284.102 122.22 279.849 117.967 274.602 117.967C269.355 117.967 265.102 122.22 265.102 127.467C265.102 132.714 269.355 136.967 274.602 136.967Z" fill="#3F3D56"/>
<path d="M1054.04 63H874.965C868.611 63.0072 862.52 65.5343 858.027 70.027C853.534 74.5197 851.007 80.611 851 86.9645V182.035C851.007 188.389 853.534 194.48 858.027 198.973C862.52 203.466 868.611 205.993 874.965 206H1054.04C1060.39 205.993 1066.48 203.466 1070.97 198.973C1075.47 194.48 1077.99 188.389 1078 182.035V86.9645C1077.99 80.6109 1075.47 74.5196 1070.97 70.027C1066.48 65.5343 1060.39 63.0072 1054.04 63V63Z" fill="#E6E6E6"/>
<path d="M874.964 82.5C873.781 82.5012 872.646 82.972 871.809 83.809C870.972 84.6459 870.501 85.7807 870.5 86.9644V182.036C870.501 183.219 870.972 184.354 871.809 185.191C872.646 186.028 873.781 186.499 874.964 186.5H1054.04C1055.22 186.499 1056.35 186.028 1057.19 185.191C1058.03 184.354 1058.5 183.219 1058.5 182.036V86.9644C1058.5 85.7807 1058.03 84.6459 1057.19 83.809C1056.35 82.972 1055.22 82.5013 1054.04 82.5H874.964Z" fill="white"/>
<path d="M964.5 139.617C977.545 139.617 988.121 129.042 988.121 115.997C988.121 102.951 977.545 92.376 964.5 92.376C951.455 92.376 940.879 102.951 940.879 115.997C940.879 129.042 951.455 139.617 964.5 139.617Z" fill="#6C63FF"/>
<path d="M964.5 143.555H964.5C972.853 143.555 980.864 146.873 986.77 152.779C992.676 158.685 995.994 166.696 995.994 175.049V176.624H933.006V175.049C933.006 166.696 936.324 158.685 942.23 152.779C948.137 146.873 956.147 143.555 964.5 143.555V143.555Z" fill="#6C63FF"/>
<path d="M916.471 151.428C925.603 151.428 933.005 144.026 933.005 134.894C933.005 125.762 925.603 118.359 916.471 118.359C907.339 118.359 899.937 125.762 899.937 134.894C899.937 144.026 907.339 151.428 916.471 151.428Z" fill="#3F3D56"/>
<path d="M932.664 159.025C929.487 156.208 925.562 154.368 921.364 153.727C917.165 153.087 912.871 153.674 908.997 155.416C905.124 157.159 901.837 159.984 899.531 163.55C897.225 167.117 895.999 171.274 896 175.522V176.624H928.282V175.049C928.275 169.411 929.789 163.875 932.664 159.025V159.025Z" fill="#3F3D56"/>
<path d="M1012.53 151.428C1021.66 151.428 1029.06 144.026 1029.06 134.894C1029.06 125.762 1021.66 118.359 1012.53 118.359C1003.4 118.359 995.994 125.762 995.994 134.894C995.994 144.026 1003.4 151.428 1012.53 151.428Z" fill="#3F3D56"/>
<path d="M996.335 159.025C999.513 156.208 1003.44 154.368 1007.64 153.727C1011.83 153.087 1016.13 153.674 1020 155.416C1023.88 157.159 1027.16 159.984 1029.47 163.55C1031.77 167.117 1033 171.274 1033 175.522V176.624H1000.72V175.049C1000.73 169.411 999.211 163.875 996.335 159.025V159.025Z" fill="#3F3D56"/>
<path opacity="0.1" d="M1129.36 691.01C1124.62 698.302 1118.81 704.836 1112.12 710.39C1110.28 711.91 1108.37 713.39 1106.43 714.77C1081.59 732.61 1048.33 740.45 1016.02 745.53C953.29 755.39 889.25 757.31 825.48 759.19C771.79 760.79 718.07 762.39 664.36 763.45C587.59 764.99 510.81 765.45 434.16 763.45C392.26 762.35 350.393 760.41 308.56 757.63C230.94 752.32 151.32 742.94 83.7498 710.18C71.3853 704.27 59.569 697.276 48.4398 689.28C30.0898 675.91 14.9798 659.73 6.89977 640.57C-6.10023 609.77 0.769766 575.16 15.6198 544.96C24.6198 526.7 36.3098 509.6 48.4398 492.65C55.6198 482.59 62.9598 472.59 69.9398 462.44C70.6698 461.44 71.3798 460.37 72.0798 459.33C73.4298 457.33 74.7698 455.33 76.0798 453.33C81.5598 444.9 86.7498 436.2 91.5098 427.33C96.2547 418.482 100.544 409.397 104.36 400.11C107.86 391.625 110.865 382.943 113.36 374.11C115.02 368.16 116.42 362.19 117.5 356.22C123.41 323.71 120.29 291.22 102.79 261.81C102.62 261.52 102.44 261.21 102.26 260.92L102.04 260.57C97.0998 252.46 91.1398 244.82 85.2798 237.15C78.2798 227.95 71.3898 218.69 66.5398 208.56C53.7798 181.79 56.5398 151.69 61.1798 123.1C67.3698 85.1001 78.8898 44.1001 114.56 20.4101C151.61 -4.2499 204.21 -2.9999 250.2 5.8201C321.66 19.4901 387.65 48.1601 454.28 74.0301C520.91 99.9001 590.67 123.56 663.93 126.09C728.62 128.34 804.07 111.54 847 67.8401C888.7 25.4101 967.09 22.1801 1023.61 47.8401C1077.53 72.2901 1112.4 124.05 1109.78 175.73C1105.96 251 1033.42 308.73 990.14 374.59C988.2 377.53 986.31 380.54 984.51 383.59C967.51 412.32 957.04 445.31 969.58 475.22C986.4 515.29 1036.34 534.84 1078.46 560.01C1098.8 572.16 1117.36 585.63 1129.36 603.39C1129.81 604.03 1130.22 604.66 1130.63 605.29C1147.56 631.49 1146.28 664.95 1129.36 691.01Z" fill="#6C63FF"/>
<path opacity="0.3" d="M76.0699 453.31C81.5499 444.88 86.7399 436.18 91.4999 427.31C96.2476 418.469 100.54 409.39 104.36 400.11C107.86 391.625 110.865 382.944 113.36 374.11C115.02 368.16 116.42 362.19 117.5 356.22C123.41 323.71 120.29 291.22 102.79 261.81C102.62 261.52 102.44 261.21 102.26 260.92L85.2599 237.15H211.41V320.91H246.5V572.16H291.78V490.66H346.11V572.16H391.36V432.93H393.62V360.49H436.62V432.93H536.23V541.59H591.7V507.59H625.7V541.59H681.16V220.13H753.6V169.19H766.05V220.13H786.42V320.87H822.65V237.11H853.21V151.11H916.59V237.11H947.16V320.87H984.51V383.58C967.51 412.31 957.04 445.3 969.58 475.21C986.4 515.28 1036.34 534.83 1078.46 560C1098.8 572.16 1117.36 585.63 1129.36 603.39V691.04C1124.62 698.322 1118.81 704.845 1112.12 710.39C1110.28 711.91 1108.37 713.39 1106.43 714.77C1081.59 732.61 1048.33 740.45 1016.02 745.53C953.29 755.39 889.25 757.31 825.48 759.19C771.79 760.79 718.07 762.39 664.36 763.45H434.14C392.24 762.35 350.373 760.41 308.54 757.63C230.92 752.32 151.3 742.94 83.7299 710.18C71.3655 704.271 59.5492 697.277 48.4199 689.28V492.65C55.5999 482.59 62.9399 472.59 69.9199 462.44L76.0699 453.31Z" fill="#6C63FF"/>
<path opacity="0.4" d="M117.46 356.18V374.07H113.36C114.98 368.12 116.36 362.15 117.46 356.18Z" fill="white"/>
<path opacity="0.4" d="M176.32 374.07H223.86V346.9H176.32V374.07Z" fill="white"/>
<path opacity="0.4" d="M117.46 400.11V427.27H91.46C96.22 418.443 100.526 409.378 104.36 400.11H117.46Z" fill="white"/>
<path opacity="0.4" d="M176.32 427.27H223.86V400.1H176.32V427.27Z" fill="white"/>
<path opacity="0.4" d="M76.0699 453.3H117.46V480.47H69.9199V462.44L76.0699 453.3Z" fill="white"/>
<path opacity="0.4" d="M176.32 480.47H223.86V453.3H176.32V480.47Z" fill="white"/>
<path opacity="0.4" d="M117.46 506.51H69.9199V533.68H117.46V506.51Z" fill="white"/>
<path opacity="0.4" d="M176.32 533.67H223.86V506.5H176.32V533.67Z" fill="white"/>
<path opacity="0.4" d="M117.46 559.71H69.9199V586.88H117.46V559.71Z" fill="white"/>
<path opacity="0.4" d="M176.32 586.87H223.86V559.7H176.32V586.87Z" fill="white"/>
<path opacity="0.4" d="M117.46 612.91H69.9199V640.08H117.46V612.91Z" fill="white"/>
<path opacity="0.4" d="M176.32 640.07H223.86V612.9H176.32V640.07Z" fill="white"/>
<path opacity="0.4" d="M117.46 666.11H69.9199V693.28H117.46V666.11Z" fill="white"/>
<path opacity="0.4" d="M176.32 693.27H223.86V666.099H176.32V693.27Z" fill="white"/>
<path opacity="0.4" d="M374.41 599.32H263.48V612.9H374.41V599.32Z" fill="white"/>
<path opacity="0.4" d="M374.41 619.7H263.48V633.28H374.41V619.7Z" fill="white"/>
<path opacity="0.4" d="M374.41 640.07H263.48V653.65H374.41V640.07Z" fill="white"/>
<path opacity="0.4" d="M664.18 606.12H553.25V619.7H664.18V606.12Z" fill="white"/>
<path opacity="0.4" d="M664.18 626.49H553.25V640.07H664.18V626.49Z" fill="white"/>
<path opacity="0.4" d="M664.18 646.86H553.25V660.44H664.18V646.86Z" fill="white"/>
<path opacity="0.4" d="M374.41 660.45H263.48V674.03H374.41V660.45Z" fill="white"/>
<path opacity="0.4" d="M374.41 680.82H263.48V694.4H374.41V680.82Z" fill="white"/>
<path opacity="0.4" d="M374.41 701.2H263.48V714.78H374.41V701.2Z" fill="white"/>
<path opacity="0.4" d="M445.71 458.97H415.15V498.59H445.71V458.97Z" fill="white"/>
<path opacity="0.4" d="M481.94 498.58H512.5V458.96H481.94V498.58Z" fill="white"/>
<path opacity="0.4" d="M445.71 522.35H415.15V561.97H445.71V522.35Z" fill="white"/>
<path opacity="0.4" d="M481.94 561.97H512.5V522.35H481.94V561.97Z" fill="white"/>
<path opacity="0.4" d="M445.71 585.74H415.15V625.36H445.71V585.74Z" fill="white"/>
<path opacity="0.4" d="M481.94 625.36H512.5V585.74H481.94V625.36Z" fill="white"/>
<path opacity="0.4" d="M445.71 649.13H415.15V688.75H445.71V649.13Z" fill="white"/>
<path opacity="0.4" d="M481.94 688.75H512.5V649.13H481.94V688.75Z" fill="white"/>
<path opacity="0.4" d="M721.9 246.17H681.15V298.24H721.9V246.17Z" fill="white"/>
<path opacity="0.4" d="M721.9 320.87H681.15V372.94H721.9V320.87Z" fill="white"/>
<path opacity="0.4" d="M721.9 395.58H681.15V447.65H721.9V395.58Z" fill="white"/>
<path opacity="0.4" d="M721.9 470.29H681.15V522.36H721.9V470.29Z" fill="white"/>
<path opacity="0.4" d="M721.9 544.99H681.15V597.06H721.9V544.99Z" fill="white"/>
<path opacity="0.4" d="M721.9 619.7H681.15V671.77H721.9V619.7Z" fill="white"/>
<path opacity="0.4" d="M961.31 352.57H809.63V396.71H961.31V352.57Z" fill="white"/>
<path opacity="0.4" d="M961.87 447.65H810.19V491.79H961.87V447.65Z" fill="white"/>
<path opacity="0.4" d="M962.44 542.73H810.76V586.87H962.44V542.73Z" fill="white"/>
<path opacity="0.4" d="M963 637.81H811.32V681.95H963V637.81Z" fill="white"/>
<path opacity="0.4" d="M102.75 260.88V261.77C102.58 261.48 102.4 261.17 102.22 260.88H102.75Z" fill="white"/>
<path opacity="0.4" d="M1129.36 603.39V619.73H1078.46V560.03C1098.8 572.16 1117.36 585.63 1129.36 603.39Z" fill="white"/>
<path opacity="0.4" d="M1129.36 649.13V691.01C1124.62 698.302 1118.81 704.836 1112.12 710.39C1110.28 711.91 1108.37 713.39 1106.43 714.77H1078.43V649.13H1129.36Z" fill="white"/>
<path opacity="0.1" d="M348.02 205.06H340.23C341.676 205.06 343.062 204.486 344.084 203.464C345.106 202.442 345.68 201.056 345.68 199.61C345.68 198.165 345.106 196.778 344.084 195.756C343.062 194.734 341.676 194.16 340.23 194.16H277.14C275.695 194.16 274.308 194.734 273.286 195.756C272.264 196.778 271.69 198.165 271.69 199.61C271.69 201.056 272.264 202.442 273.286 203.464C274.308 204.486 275.695 205.06 277.14 205.06H284.93C283.524 205.12 282.195 205.721 281.221 206.738C280.247 207.754 279.704 209.108 279.704 210.515C279.704 211.923 280.247 213.276 281.221 214.292C282.195 215.309 283.524 215.91 284.93 215.97H274.03C272.585 215.97 271.198 216.544 270.176 217.566C269.154 218.588 268.58 219.975 268.58 221.42C268.58 222.866 269.154 224.252 270.176 225.274C271.198 226.296 272.585 226.87 274.03 226.87H337.11C338.556 226.87 339.942 226.296 340.964 225.274C341.986 224.252 342.56 222.866 342.56 221.42C342.56 219.975 341.986 218.588 340.964 217.566C339.942 216.544 338.556 215.97 337.11 215.97H348.02C349.426 215.91 350.755 215.309 351.729 214.292C352.703 213.276 353.246 211.923 353.246 210.515C353.246 209.108 352.703 207.754 351.729 206.738C350.755 205.721 349.426 205.12 348.02 205.06V205.06Z" fill="#6C63FF"/>
<path opacity="0.1" d="M626.47 342.02H618.68C620.125 342.02 621.511 341.446 622.533 340.424C623.556 339.402 624.13 338.016 624.13 336.57C624.13 335.125 623.556 333.738 622.533 332.716C621.511 331.694 620.125 331.12 618.68 331.12H555.59C554.144 331.12 552.758 331.694 551.736 332.716C550.714 333.738 550.14 335.125 550.14 336.57C550.14 338.016 550.714 339.402 551.736 340.424C552.758 341.446 554.144 342.02 555.59 342.02H563.36C561.953 342.08 560.625 342.681 559.651 343.698C558.677 344.714 558.133 346.067 558.133 347.475C558.133 348.883 558.677 350.236 559.651 351.252C560.625 352.269 561.953 352.87 563.36 352.93H552.46C551.744 352.93 551.035 353.071 550.374 353.345C549.713 353.619 549.112 354.02 548.606 354.526C548.1 355.032 547.699 355.633 547.425 356.294C547.151 356.956 547.01 357.664 547.01 358.38C547.01 359.096 547.151 359.805 547.425 360.466C547.699 361.127 548.1 361.728 548.606 362.234C549.112 362.74 549.713 363.141 550.374 363.415C551.035 363.689 551.744 363.83 552.46 363.83H615.56C617.005 363.83 618.391 363.256 619.413 362.234C620.436 361.212 621.01 359.826 621.01 358.38C621.01 356.935 620.436 355.548 619.413 354.526C618.391 353.504 617.005 352.93 615.56 352.93H626.47C627.876 352.87 629.205 352.269 630.179 351.252C631.152 350.236 631.696 348.883 631.696 347.475C631.696 346.067 631.152 344.714 630.179 343.698C629.205 342.681 627.876 342.08 626.47 342.02V342.02Z" fill="#6C63FF"/>
<path opacity="0.1" d="M1100.74 163.18H1092.95C1094.4 163.18 1095.78 162.606 1096.8 161.584C1097.83 160.562 1098.4 159.176 1098.4 157.73C1098.4 156.285 1097.83 154.899 1096.8 153.877C1095.78 152.854 1094.4 152.28 1092.95 152.28H1029.86C1028.41 152.28 1027.03 152.854 1026.01 153.877C1024.98 154.899 1024.41 156.285 1024.41 157.73C1024.41 159.176 1024.98 160.562 1026.01 161.584C1027.03 162.606 1028.41 163.18 1029.86 163.18H1037.65C1036.2 163.18 1034.82 163.754 1033.8 164.777C1032.77 165.799 1032.2 167.185 1032.2 168.63C1032.2 170.076 1032.77 171.462 1033.8 172.484C1034.82 173.506 1036.2 174.08 1037.65 174.08H1026.75C1025.34 174.141 1024.01 174.742 1023.04 175.758C1022.07 176.774 1021.52 178.128 1021.52 179.535C1021.52 180.943 1022.07 182.296 1023.04 183.313C1024.01 184.329 1025.34 184.93 1026.75 184.99H1089.83C1090.57 185.022 1091.3 184.904 1091.99 184.644C1092.68 184.384 1093.31 183.987 1093.84 183.478C1094.37 182.968 1094.8 182.356 1095.09 181.679C1095.37 181.001 1095.52 180.272 1095.52 179.535C1095.52 178.799 1095.37 178.07 1095.09 177.392C1094.8 176.714 1094.37 176.102 1093.84 175.593C1093.31 175.083 1092.68 174.686 1091.99 174.426C1091.3 174.167 1090.57 174.049 1089.83 174.08H1100.74C1102.19 174.08 1103.57 173.506 1104.59 172.484C1105.62 171.462 1106.19 170.076 1106.19 168.63C1106.19 167.185 1105.62 165.799 1104.59 164.777C1103.57 163.754 1102.19 163.18 1100.74 163.18V163.18Z" fill="#6C63FF"/>
<path d="M1010.2 431.68L1010.26 431.59L1010.02 431.43L1009.53 431.1C1009.56 431.121 1009.59 431.148 1009.62 431.18C1009.19 430.929 1008.68 430.848 1008.2 430.952C1007.71 431.055 1007.28 431.336 1006.99 431.74L1006.69 432.15L992.69 452.25L990.24 455.78C982.88 453.56 970.92 462.9 964.85 468.25L963.79 469.2C963.31 468.12 963.03 467.44 963.03 467.44C962.73 470.72 951.12 475.65 948.41 477.44C947.189 478.174 945.825 478.638 944.41 478.8C944.79 466.29 935.13 453.13 935.13 453.13L911.52 423.05C910.649 417.612 911.491 412.037 913.93 407.1C914.12 406.71 914.33 406.32 914.55 405.93C914.88 405.93 915.23 405.93 915.55 405.93H915.68C917.608 405.928 919.532 405.757 921.43 405.42C928.38 404.187 934.715 400.655 939.417 395.391C944.12 390.126 946.917 383.434 947.36 376.39C949.74 375.78 951.76 373.57 951.42 371.03C951.509 370.547 951.509 370.052 951.42 369.57C951.356 369.266 951.265 368.968 951.15 368.68V368.68C950.48 366.97 949.04 365.59 948 364.03C946.541 361.744 945.761 359.091 945.75 356.38C945.841 354.011 946.21 351.662 946.85 349.38C947.326 348.018 947.553 346.582 947.52 345.14V344.85C947.538 344.472 947.521 344.094 947.47 343.72C947.427 343.452 947.363 343.188 947.28 342.93V342.93C946.697 341.32 945.582 339.959 944.12 339.07C940.38 336.63 935.59 336.59 931.39 335.07C925.29 332.84 919.78 327.33 913.39 328.66C909.91 329.38 907.24 332.05 904.23 333.93C900.908 336.007 897.095 337.166 893.18 337.29C889.89 337.39 886.56 336.75 883.32 337.29C882.738 337.393 882.166 337.547 881.61 337.75C878.855 336.813 875.959 336.356 873.05 336.4C870.195 336.326 867.383 337.102 864.97 338.63C860.59 341.68 859.43 347.63 859.49 352.92C859.484 352.963 859.484 353.006 859.49 353.05C859.49 353.4 859.49 353.74 859.49 354.05C859.49 356.59 859.74 359.17 859.79 361.71C859.814 364.08 859.477 366.441 858.79 368.71C856.79 374.99 851 379.79 849.84 386.3C849.643 387.422 849.576 388.562 849.64 389.7C849.56 393.38 850.74 397.07 851.83 400.64C854.09 408.02 855.83 415.86 855.89 423.52C855.842 428.277 854.896 432.983 853.1 437.39C852.559 438.677 851.889 439.907 851.1 441.06C850.84 441.42 850.57 441.78 850.28 442.12L850.17 442.25C849.92 442.54 849.65 442.81 849.38 443.07L849.16 443.28C848.901 443.507 848.631 443.72 848.35 443.92L848.08 444.12C847.705 444.374 847.31 444.598 846.9 444.79L848.9 444.67C848.289 445.178 847.617 445.608 846.9 445.95L857.52 445.33C857.547 445.444 857.564 445.562 857.57 445.68C857.539 445.943 857.489 446.204 857.42 446.46C857.348 446.708 857.261 446.952 857.16 447.19C857.161 447.223 857.161 447.256 857.16 447.29C856.945 447.766 856.669 448.213 856.34 448.62L856.25 448.72C856.086 448.921 855.909 449.112 855.72 449.29V449.29C855.537 449.453 855.343 449.603 855.14 449.74L855.01 449.84C854.798 449.976 854.577 450.1 854.35 450.21V450.21C854.129 450.311 853.902 450.398 853.67 450.47L853.49 450.52C853.248 450.587 853 450.634 852.75 450.66L853.75 450.55C854.42 450.47 855.09 450.38 855.75 450.27H855.95C855.097 451.151 853.967 451.712 852.75 451.86C855.037 451.681 857.296 451.235 859.48 450.53C860.86 459.82 863.93 488.13 862.24 493.36C860.43 498.93 865.05 539.77 865.05 539.77C865.05 539.77 865.68 542.9 866.78 547.57C863.94 554.28 860.7 561.7 859.07 564.68C855.81 570.68 857.41 601.14 868.67 614.68C868.67 614.68 873.33 621.25 872.1 623.68C870.87 626.11 872.31 630.26 872.31 630.26L874.09 669.7C874.051 673.729 873.774 677.753 873.26 681.75C868.47 687.7 861.06 696.37 857.58 697.75C852.19 699.94 811.99 748.75 811.99 748.75C811.99 748.75 812.31 749.339 812.94 750.299L811.81 751.609L804.1 760.549L803.49 761.26C802.04 760.99 792.41 759.26 784.75 758.68L784 758.63V758.5C781.31 758.184 778.589 758.255 775.92 758.71H775.86C775.358 758.809 774.896 759.052 774.53 759.41C771.92 762.6 770.53 812.81 770.53 812.81C770.53 812.81 773.31 837.89 781.95 839.33C782.401 839.486 782.873 839.577 783.35 839.6H783.36C783.52 839.609 783.68 839.609 783.84 839.6C790.04 839.15 792.84 835.6 794.13 833.15C794.507 832.413 794.796 831.634 794.99 830.83C794.99 830.83 793.99 826.35 796.7 820.18C799.41 814.01 804.44 803.24 804.44 803.24C804.44 803.24 813.63 793.57 811.99 788.88L812.87 787.609C816.33 782.689 823.3 772.97 828.94 766.48L830.04 765.23C832.094 766.104 834.246 766.729 836.45 767.09C836.45 767.09 845.09 763.71 848.31 756.09C849.68 752.87 855.04 747.17 860.75 741.67C860.63 742.61 860.57 743.14 860.57 743.14L860.37 791.14C862.226 792.418 864.206 793.506 866.28 794.39C866.28 794.78 866.28 795.18 866.28 795.59C866.323 802.433 865.912 809.271 865.05 816.06L864.87 817.12C864.16 816.61 863.55 816.44 863.15 816.84C861.38 818.63 860.28 830.09 860.15 835.37C860.15 835.47 860.15 835.57 860.15 835.67C860.03 837.85 859.45 840.45 859.45 842.77C859.39 846.14 860.45 848.98 865.9 849.22C872.67 849.5 901.79 849.95 917.38 850.22C925.782 850.388 933.958 847.491 940.38 842.07C943.24 839.62 945.43 836.9 945.5 834.33C945.64 832.33 944.57 830.46 941.59 828.82C941.576 828.888 941.556 828.955 941.53 829.02C941.14 828.81 940.72 828.6 940.26 828.4L925.26 826.049L899.76 813.04C899.76 813.04 899.61 805.16 896.55 806.47C895.638 806.659 894.763 806.997 893.96 807.47C893.81 807.17 893.65 806.869 893.5 806.549C891.424 802.424 890.345 797.868 890.35 793.25C890.35 792.83 890.35 792.41 890.41 791.98C891.163 791.304 891.872 790.579 892.53 789.81C892.53 789.81 892.33 771.88 894.33 768.49C896.33 765.1 902.58 730.83 902.58 730.83C902.58 730.83 902.78 724.46 906.8 720.67C910.82 716.88 909.41 705.93 909.41 705.93C909.41 705.93 915.03 702.93 916.84 693.18C918.65 683.43 924.48 662.1 924.48 662.1C924.48 662.1 936.54 630.62 935.74 610.7C934.94 590.78 936.94 580.42 936.94 580.42L939.45 534.13V533.41C940.45 534.18 941.12 534.79 941.12 534.79C941.12 534.79 941.12 534.61 941.12 534.29L941.7 534.79C941.7 534.79 942.98 513.79 942.55 505.46C949.55 503.07 960.29 499.14 960.89 497.14C961.8 494.14 973.89 484.74 973.89 484.74C973.632 484.69 973.385 484.595 973.16 484.46C973.54 484.29 973.93 484.08 974.35 483.86C982.25 479.62 996.94 467.25 994.47 459.68L1010.53 436.58C1011.04 435.847 1011.28 434.962 1011.22 434.072C1011.16 433.181 1010.8 432.337 1010.2 431.68V431.68ZM879.36 409.22C878.968 409.225 878.578 409.255 878.19 409.31C877.478 405.187 876.475 401.12 875.19 397.14C873.33 390.88 871.33 384.58 871.03 378.07C871.03 377.79 871.03 377.5 871.03 377.22C871.062 375.503 871.287 373.796 871.7 372.13C872.08 372.84 872.51 373.54 872.95 374.2C875.52 378.08 878.52 381.77 880.1 386.14C880.82 388.14 881.24 390.31 882.34 392.14C883.44 393.97 885.47 395.52 887.61 395.19C888.346 395.072 889.037 394.757 889.61 394.28C886.739 399.613 883.302 404.621 879.36 409.22Z" fill="url(#paint0_linear)"/>
<path d="M971.53 488.9C970.372 489.62 969.085 490.109 967.74 490.34C962.74 490.48 958.74 477.09 958.74 477.09C958.74 477.09 960.15 475.66 962.39 473.66C969.02 467.77 982.94 456.88 989.46 462.97C996.75 469.8 980.05 484.29 971.53 488.9Z" fill="#ECB4B6"/>
<path d="M896.36 808.25L878.11 827.95C878.11 827.95 861.22 828.14 864.53 818.82C865.18 816.802 865.649 814.73 865.93 812.63C866.767 805.996 867.164 799.315 867.12 792.63C867.12 788.26 867.05 785.2 867.05 785.2C867.05 785.2 893.64 773.55 890.92 785.68C890.569 787.226 890.381 788.804 890.36 790.39C890.341 794.881 891.368 799.314 893.36 803.34C894.198 805.07 895.203 806.714 896.36 808.25Z" fill="#ECB4B6"/>
<path opacity="0.1" d="M896.36 808.25L878.11 827.95C878.11 827.95 861.22 828.14 864.53 818.82C865.18 816.802 865.649 814.731 865.93 812.63C868.34 814.49 871.81 819.99 871.81 819.99C871.81 819.99 883.45 823.39 886.65 813.2C888.45 807.5 891.27 804.68 893.42 803.3C894.237 805.041 895.222 806.699 896.36 808.25V808.25Z" fill="black"/>
<path d="M938.69 837.92C932.51 843.219 924.6 846.066 916.46 845.92C901.41 845.7 873.28 845.26 866.75 844.99C858.01 844.61 860.91 837.15 861.19 831.99C861.19 831.81 861.19 831.64 861.19 831.47C861.29 826.33 862.36 815.17 864.07 813.47C865.78 811.77 871.78 821.23 871.78 821.23C871.78 821.23 883.42 824.63 886.62 814.44C889.82 804.25 896.36 803.2 896.36 803.2C899.36 801.92 899.47 809.6 899.47 809.6L924.12 822.32L938.58 824.6C939.05 824.81 939.47 825.03 939.87 825.24C946.36 828.86 943.48 833.78 938.69 837.92Z" fill="#6C63FF"/>
<path opacity="0.25" d="M893.14 818.34C893.731 818.34 894.21 817.861 894.21 817.27C894.21 816.679 893.731 816.2 893.14 816.2C892.549 816.2 892.07 816.679 892.07 817.27C892.07 817.861 892.549 818.34 893.14 818.34Z" fill="white"/>
<path opacity="0.25" d="M903.14 823.29C903.731 823.29 904.21 822.811 904.21 822.22C904.21 821.629 903.731 821.15 903.14 821.15C902.549 821.15 902.07 821.629 902.07 822.22C902.07 822.811 902.549 823.29 903.14 823.29Z" fill="white"/>
<path opacity="0.25" d="M908.29 825.6C908.881 825.6 909.36 825.121 909.36 824.53C909.36 823.939 908.881 823.46 908.29 823.46C907.699 823.46 907.22 823.939 907.22 824.53C907.22 825.121 907.699 825.6 908.29 825.6Z" fill="white"/>
<path opacity="0.25" d="M918.96 829.7C919.551 829.7 920.03 829.221 920.03 828.63C920.03 828.039 919.551 827.56 918.96 827.56C918.369 827.56 917.89 828.039 917.89 828.63C917.89 829.221 918.369 829.7 918.96 829.7Z" fill="white"/>
<path opacity="0.25" d="M913.53 827.95C914.121 827.95 914.6 827.471 914.6 826.88C914.6 826.289 914.121 825.81 913.53 825.81C912.939 825.81 912.46 826.289 912.46 826.88C912.46 827.471 912.939 827.95 913.53 827.95Z" fill="white"/>
<path d="M938.69 837.92C932.51 843.22 924.6 846.067 916.46 845.92C901.41 845.7 873.28 845.26 866.75 844.99C858.01 844.61 860.91 837.15 861.19 831.99L916.05 835.39C916.05 835.39 938.52 831.98 939.86 825.29C946.36 828.86 943.48 833.78 938.69 837.92Z" fill="#6C63FF"/>
<path opacity="0.25" d="M938.69 837.7C932.502 842.979 924.592 845.804 916.46 845.64C901.41 845.42 873.28 844.99 866.75 844.71C858.01 844.33 860.91 836.87 861.19 831.71L916.05 835.1C916.05 835.1 938.52 831.69 939.86 825C946.36 828.64 943.48 833.56 938.69 837.7Z" fill="white"/>
<path d="M836.56 758.75C834.539 760.393 832.693 762.24 831.05 764.26C825.61 770.59 818.88 780.06 815.54 784.85C814.25 786.71 813.46 787.85 813.46 787.85L806.18 786.77C806.18 786.77 798.32 774.77 798.42 774.45C798.52 774.13 804.63 761.25 804.63 761.25L807 758.48L814.46 749.76L817.83 745.82C817.83 745.82 843.16 753.99 836.56 758.75Z" fill="#ECB4B6"/>
<path opacity="0.1" d="M815.54 784.85C814.25 786.71 813.46 787.85 813.46 787.85L806.18 786.77C806.18 786.77 798.32 774.77 798.42 774.45C798.52 774.13 804.63 761.25 804.63 761.25L807 758.48L807.78 758.62H809.62C803.12 765.41 810.11 780.36 810.11 780.36C810.11 780.36 813.13 780.66 815.54 784.85Z" fill="black"/>
<path d="M807.36 800.08C807.36 800.08 802.5 810.56 799.88 816.58C797.26 822.6 798.23 826.97 798.23 826.97C798.044 827.75 797.766 828.506 797.4 829.22C796.467 831.069 795.05 832.631 793.299 833.739C791.549 834.846 789.531 835.458 787.46 835.51C787.304 835.525 787.146 835.525 786.99 835.51C778.18 835.28 775.36 809.59 775.36 809.59C775.36 809.59 776.71 760.68 779.24 757.59C779.585 757.235 780.033 756.997 780.52 756.91C783.093 756.465 785.717 756.394 788.31 756.7C796.31 757.27 806.61 759.24 806.61 759.24H808.45C801.95 766.03 808.93 780.98 808.93 780.98C808.93 780.98 812.04 781.27 814.47 785.64C816.9 790.01 807.36 800.08 807.36 800.08Z" fill="#6C63FF"/>
<path opacity="0.25" d="M796.71 786.6C797.301 786.6 797.78 786.121 797.78 785.53C797.78 784.939 797.301 784.46 796.71 784.46C796.119 784.46 795.64 784.939 795.64 785.53C795.64 786.121 796.119 786.6 796.71 786.6Z" fill="white"/>
<path opacity="0.25" d="M796.18 795.07C796.771 795.07 797.25 794.591 797.25 794C797.25 793.409 796.771 792.93 796.18 792.93C795.589 792.93 795.11 793.409 795.11 794C795.11 794.591 795.589 795.07 796.18 795.07Z" fill="white"/>
<path d="M796.71 829.04C795.51 831.41 792.71 834.88 786.77 835.33H786.36C777.51 835.1 774.69 809.41 774.69 809.41C774.69 809.41 776.05 760.5 778.57 757.41C778.917 757.057 779.364 756.82 779.85 756.73C782.426 756.286 785.053 756.215 787.65 756.52C787.5 765.3 787.09 793.1 787.65 795.86C788.21 798.62 793.19 821.64 796.71 829.04Z" fill="#6C63FF"/>
<path opacity="0.25" d="M797.36 829.22C796.428 831.07 795.011 832.632 793.26 833.74C791.51 834.848 789.491 835.46 787.42 835.51C787.264 835.525 787.106 835.525 786.95 835.51C778.1 835.28 775.29 809.59 775.29 809.59C775.29 809.59 776.65 760.68 779.17 757.59C779.517 757.237 779.964 757 780.45 756.91C783.026 756.465 785.653 756.394 788.25 756.7C788.1 765.48 787.68 793.28 788.25 796.04C788.82 798.8 793.83 821.82 797.36 829.22Z" fill="white"/>
<path d="M786.36 835.33C777.51 835.1 774.69 809.41 774.69 809.41C774.69 809.41 776.05 760.5 778.57 757.41C778.917 757.058 779.364 756.82 779.85 756.73C781.71 759.49 783.34 765.6 781.85 779.05C779.09 804.53 782.42 806.13 782.42 806.13C782.42 806.13 786.51 827.73 786.36 835.33Z" fill="#6C63FF"/>
<path opacity="0.1" d="M786.24 835.33C777.36 835.1 774.57 809.39 774.57 809.39C774.57 809.39 775.93 760.48 778.45 757.39C778.797 757.037 779.243 756.8 779.73 756.71C781.59 759.47 783.21 765.58 781.73 779.03C778.97 804.51 782.3 806.11 782.3 806.11C782.3 806.11 786.44 827.73 786.24 835.33Z" fill="black"/>
<path opacity="0.1" d="M971.53 488.9C970.372 489.62 969.085 490.109 967.74 490.34C962.74 490.48 958.74 477.09 958.74 477.09C958.74 477.09 960.15 475.66 962.39 473.66C963.94 477.32 968.41 487.09 971.53 488.9Z" fill="black"/>
<path d="M939.78 484.08C939.78 484.08 943.86 484.37 946.48 482.62C949.1 480.87 960.31 476.07 960.6 472.87C960.6 472.87 967.3 489.17 971.08 489.75C971.08 489.75 959.44 498.93 958.56 501.84C957.68 504.75 934.98 511.84 934.98 511.84L939.78 484.08Z" fill="#FF748E"/>
<path d="M939.78 484.08C939.78 484.08 943.86 484.37 946.48 482.62C949.1 480.87 960.31 476.07 960.6 472.87C960.6 472.87 967.3 489.17 971.08 489.75C971.08 489.75 959.44 498.93 958.56 501.84C957.68 504.75 934.98 511.84 934.98 511.84L939.78 484.08Z" fill="#6C63FF"/>
<path opacity="0.1" d="M836.56 758.75C834.539 760.393 832.693 762.239 831.05 764.26C822.28 760.58 816.61 753.08 814.46 749.78L817.83 745.84C817.83 745.84 843.16 753.99 836.56 758.75Z" fill="black"/>
<path d="M878.1 676.15C878.1 676.15 863.86 695.15 858.66 697.31C853.46 699.47 814.66 747 814.66 747C814.66 747 822.98 762.39 838.36 764.86C838.36 764.86 846.71 761.56 849.81 754.19C852.91 746.82 877.36 726.04 877.36 726.04L878.1 676.15Z" fill="#5E5A6B"/>
<path opacity="0.1" d="M878.1 676.15C878.1 676.15 863.86 695.15 858.66 697.31C853.46 699.47 814.66 747 814.66 747C814.66 747 822.98 762.39 838.36 764.86C838.36 764.86 846.71 761.56 849.81 754.19C852.91 746.82 877.36 726.04 877.36 726.04L878.1 676.15Z" fill="black"/>
<path opacity="0.1" d="M834.96 739.87C839.281 740.329 843.639 740.329 847.96 739.87C855.64 739.14 849.81 743.8 834.96 739.87Z" fill="black"/>
<path opacity="0.1" d="M831.47 744.82C831.47 744.82 841.66 750.64 845.59 747.73C849.52 744.82 841.8 750.54 831.47 744.82Z" fill="black"/>
<path opacity="0.1" d="M890.91 785.73C890.565 787.26 890.381 788.822 890.36 790.39C882.49 797.53 873.02 795.33 867.1 792.72C867.1 788.35 867.03 785.29 867.03 785.29C867.03 785.29 893.63 773.6 890.91 785.73Z" fill="black"/>
<path d="M938.08 532.51L937.79 537.88L935.36 582.98C935.36 582.98 933.36 593.07 934.19 612.48C935.02 631.89 923.36 662.56 923.36 662.56C923.36 662.56 917.73 683.34 915.98 692.85C914.23 702.36 908.8 705.27 908.8 705.27C908.8 705.27 910.16 715.95 906.28 719.63C902.4 723.31 902.21 729.53 902.21 729.53C902.21 729.53 896.21 762.92 894.21 766.22C892.21 769.52 892.46 786.99 892.46 786.99C879.84 801.94 861.4 788.35 861.4 788.35L861.59 741.57C861.59 741.57 866.84 698.48 870.72 692.46C874.6 686.44 874.6 669.94 874.6 669.94L872.87 631.51C872.87 631.51 871.49 627.43 872.68 625.1C873.87 622.77 869.36 616.39 869.36 616.39C858.49 603.19 856.94 573.49 860.09 567.66C863.24 561.83 872.68 538.55 872.68 538.55L885.68 530.97L909.15 531.67L938.08 532.51Z" fill="#5E5A6B"/>
<path opacity="0.1" d="M882.86 761.27C882.86 761.27 885.93 771.9 888.4 773.06C890.87 774.22 882.86 761.27 882.86 761.27Z" fill="black"/>
<path opacity="0.1" d="M887.08 725.89C887.08 725.89 895.08 732.17 898.37 732.15C901.66 732.13 887.08 725.89 887.08 725.89Z" fill="black"/>
<path d="M934.98 463.11V475.92L926.52 472.28L918.09 468.64L899.75 450.59C899.75 450.59 885.24 441.16 877.47 432.59C873.03 427.69 870.79 423.06 874.71 420.59C876.597 419.348 878.303 417.85 879.78 416.14C883.686 411.541 887.083 406.532 889.91 401.2L890.27 400.55C894.05 393.61 896.54 387.69 896.54 387.69C896.54 387.69 907.18 391.1 914.03 395.93C914.58 396.31 915.1 396.71 915.6 397.12C919.42 400.25 921.31 403.87 917.8 407.49C916.892 408.429 916.053 409.431 915.29 410.49V410.49C914.721 411.273 914.204 412.092 913.74 412.94C913.53 413.32 913.33 413.7 913.14 414.07C910.784 418.891 909.97 424.321 910.81 429.62L934.98 463.11Z" fill="#ECB4B6"/>
<path opacity="0.1" d="M917.8 407.5C916.892 408.438 916.053 409.441 915.29 410.5V410.5C914.722 411.283 914.204 412.101 913.74 412.95C913.53 413.33 913.33 413.71 913.14 414.08C908.653 413.832 904.276 412.596 900.322 410.459C896.369 408.322 892.936 405.338 890.27 401.72C890.137 401.554 890.017 401.384 889.91 401.21L890.27 400.56C894.05 393.62 896.54 387.7 896.54 387.7C896.54 387.7 907.18 391.11 914.03 395.94C914.58 396.32 915.1 396.72 915.6 397.13C919.42 400.26 921.36 403.88 917.8 407.5Z" fill="black"/>
<path d="M945.43 382.39C945.436 386.406 944.65 390.385 943.116 394.096C941.582 397.808 939.331 401.181 936.491 404.021C933.651 406.861 930.278 409.113 926.566 410.646C922.854 412.18 918.876 412.967 914.86 412.96H914.73C914.4 412.96 914.06 412.96 913.73 412.96C907.879 412.744 902.214 410.853 897.407 407.511C892.6 404.17 888.853 399.518 886.613 394.109C884.373 388.7 883.733 382.762 884.769 377C885.805 371.237 888.474 365.894 892.459 361.605C896.443 357.316 901.576 354.261 907.246 352.803C912.916 351.346 918.886 351.547 924.445 353.384C930.004 355.22 934.919 358.614 938.605 363.162C942.291 367.71 944.594 373.221 945.24 379.04C945.363 380.153 945.427 381.271 945.43 382.39V382.39Z" fill="#ECB4B6"/>
<path opacity="0.1" d="M918.87 457.97C918.87 457.97 934.27 466.66 930.32 459.33L910.23 429.63L933.04 458.94C933.04 458.94 947.6 478.94 939.64 492.71C939.64 492.71 938.47 504.17 939.83 506.88C941.19 509.59 939.44 538.53 939.44 538.53C939.44 538.53 934.01 533.53 931.1 534.45C928.19 535.37 907.61 537.17 907.61 537.17L918.87 457.97Z" fill="black"/>
<path opacity="0.1" d="M938.08 532.51L937.79 537.88C935.95 536.54 933.38 535.04 931.68 535.61C928.77 536.61 908.19 538.33 908.19 538.33L909.14 531.65L938.08 532.51Z" fill="black"/>
<path d="M919.45 457.97C919.45 457.97 934.85 466.66 930.9 459.33L910.81 429.63L933.62 458.94C933.62 458.94 948.18 478.94 940.22 492.71C940.22 492.71 939.06 504.17 940.41 506.88C941.76 509.59 940.03 538.53 940.03 538.53C940.03 538.53 934.59 533.53 931.68 534.45C928.77 535.37 908.19 537.17 908.19 537.17L919.45 457.97Z" fill="#464353"/>
<path opacity="0.1" d="M927.68 472.86C926.78 482.19 922.94 493.29 922.94 493.29C922.94 493.29 920.23 520.86 916.73 529.02C913.23 537.18 914.79 548.43 912.85 569.2C912.15 576.67 909.74 581.81 906.49 585.28C901.15 590.98 893.49 592.17 887.49 591.82C887 591.82 886.49 591.76 886.06 591.71C876.35 590.71 867.06 543.96 867.06 543.96C867.06 543.96 862.6 504.17 864.34 498.73C866.08 493.29 862.6 462.24 861.43 455.44C860.69 451.14 862.92 444.1 864.64 439.53C865.64 436.88 866.48 435.06 866.48 435.06C866.48 435.06 869.78 424.58 875.21 419.15C875.959 418.38 876.854 417.77 877.844 417.354C878.834 416.938 879.897 416.726 880.97 416.73C883.525 416.823 886.008 417.6 888.16 418.98L888.41 419.15C888.41 419.15 923.74 455.25 927.04 463.6C927.94 465.92 928.03 469.26 927.68 472.86Z" fill="black"/>
<path d="M926.52 472.28C925.62 481.61 921.78 492.71 921.78 492.71C921.78 492.71 919.06 520.28 915.57 528.43C912.08 536.58 913.57 547.84 911.69 568.61C910.99 576.09 908.58 581.23 905.33 584.7C899.98 590.4 892.33 591.59 886.33 591.24L884.91 591.13C875.2 590.13 865.91 543.38 865.91 543.38C865.91 543.38 861.45 503.58 863.2 498.15C864.95 492.72 861.45 461.66 860.29 454.86C859.55 450.56 861.77 443.52 863.5 438.94C864.5 436.3 865.33 434.48 865.33 434.48C865.33 434.48 868.63 424 874.07 418.56C874.818 417.794 875.713 417.186 876.7 416.772C877.688 416.358 878.749 416.147 879.82 416.15C882.378 416.245 884.863 417.022 887.02 418.4L887.27 418.56C887.27 418.56 922.6 454.67 925.89 463.01C926.77 465.39 926.87 468.68 926.52 472.28Z" fill="#6C63FF"/>
<path opacity="0.1" d="M886.94 614.39C886.94 614.39 878.94 621.52 876.16 621.23C873.38 620.94 886.94 614.39 886.94 614.39Z" fill="black"/>
<path opacity="0.1" d="M889.07 621.23C889.07 621.23 880.63 625.15 878.07 625.73C875.51 626.31 885.81 620.22 889.07 621.23Z" fill="black"/>
<path opacity="0.1" d="M921.73 514.07C921.73 514.07 934.25 514.21 936.14 518.14C938.03 522.07 925.81 512.47 921.73 514.07Z" fill="black"/>
<path opacity="0.1" d="M919.98 520.91C919.98 520.91 929.59 522.91 932.5 525.28C935.41 527.65 919.98 520.91 919.98 520.91Z" fill="black"/>
<path opacity="0.1" d="M903.83 497.18C903.83 497.18 902.67 536.63 898.37 541.73C894.07 546.83 903.83 497.18 903.83 497.18Z" fill="black"/>
<path opacity="0.1" d="M893.05 608.7C893.05 608.7 885.05 643.49 901.14 645.7C917.23 647.91 912.27 606.1 912.27 606.1L893.05 608.7Z" fill="black"/>
<path d="M892.47 608.11C892.47 608.11 884.47 642.91 900.55 645.11C916.63 647.31 911.69 605.51 911.69 605.51L892.47 608.11Z" fill="#ECB4B6"/>
<path opacity="0.1" d="M906.23 462.05C905.4 441.14 876.14 436.82 869.31 456.6C869.26 456.73 869.22 456.86 869.17 457C864.71 470.39 866.65 504.3 866.65 504.3C866.65 504.3 867.23 527.07 869.37 534.64C871.51 542.21 877.52 563.95 877.52 567.45C877.52 570.95 883.1 584.34 885.45 585.31C887.8 586.28 888.99 593.85 889.56 595.21C890.13 596.57 891.89 614.21 891.89 614.21C891.89 614.21 913.82 612.85 914.21 609.36C914.6 605.87 909.36 588.8 909.36 588.8C909.36 588.8 905.49 581.8 905 576.18C904.51 570.56 901.4 568.03 902 564.18C902.6 560.33 900.25 558.35 900.25 555.83C900.25 553.31 898.51 546.51 898.51 546.51C898.51 546.51 894.82 543.6 895.4 540.11C895.98 536.62 890.16 529.63 891.71 527.11C893.26 524.59 893.65 518.38 893.65 518.38C893.65 518.38 895.59 490.38 896.95 482.85C898.31 475.32 906.27 463.06 906.27 463.06C906.27 463.06 906.25 462.67 906.23 462.05Z" fill="black"/>
<path opacity="0.1" d="M905.36 584.7C900.01 590.4 892.36 591.59 886.36 591.24C885.67 588.59 884.65 585.34 883.16 584.72C880.81 583.72 875.23 570.36 875.23 566.87C875.23 563.38 869.23 541.63 867.08 534.06C864.93 526.49 864.36 503.72 864.36 503.72C864.36 503.72 862.36 469.81 866.85 456.39C866.85 456.25 866.93 456.12 866.98 455.98C873.81 436.2 903.07 440.53 903.9 461.44C903.9 462.06 903.9 462.44 903.9 462.44C903.9 462.44 895.9 474.67 894.59 482.24C893.28 489.81 891.28 517.76 891.28 517.76C891.28 517.76 890.89 523.98 889.34 526.5C887.79 529.02 893.61 536.01 893.03 539.5C892.45 542.99 896.13 545.9 896.13 545.9C896.13 545.9 897.88 552.69 897.88 555.22C897.88 557.75 900.21 559.68 899.63 563.57C899.05 567.46 902.16 569.97 902.63 575.57C903.07 578.735 903.99 581.814 905.36 584.7V584.7Z" fill="black"/>
<path d="M905.06 461.47C904.23 440.56 874.98 436.23 868.15 456.01C868.15 456.15 868.05 456.28 868.01 456.42C863.55 469.81 865.49 503.72 865.49 503.72C865.49 503.72 866.07 526.49 868.2 534.06C870.33 541.63 876.36 563.39 876.36 566.87C876.36 570.35 881.93 583.75 884.29 584.72C886.65 585.69 887.83 593.27 888.4 594.62C888.97 595.97 890.72 613.62 890.72 613.62C890.72 613.62 912.66 612.26 913.04 608.76C913.42 605.26 908.19 588.19 908.19 588.19C908.19 588.19 904.33 581.19 903.83 575.57C903.33 569.95 900.23 567.42 900.83 563.57C901.43 559.72 899.08 557.74 899.08 555.22C899.08 552.7 897.33 545.9 897.33 545.9C897.33 545.9 893.64 542.99 894.23 539.5C894.82 536.01 888.98 529.01 890.54 526.5C892.1 523.99 892.48 517.77 892.48 517.77C892.48 517.77 894.42 489.77 895.78 482.24C897.14 474.71 905.1 462.44 905.1 462.44C905.1 462.44 905.09 462.09 905.06 461.47Z" fill="#6C63FF"/>
<path opacity="0.1" d="M869.03 515.23C869.61 514.65 880.68 502.42 884.17 506.79C887.66 511.16 869.03 515.23 869.03 515.23Z" fill="black"/>
<path opacity="0.1" d="M870.05 524.69C870.48 524.26 881.11 523.82 883.73 517.85C886.35 511.88 870.05 524.69 870.05 524.69Z" fill="black"/>
<g opacity="0.1">
<path opacity="0.1" d="M857.94 417.39C858.204 417.697 858.401 418.054 858.52 418.44C858.738 417.774 858.799 417.066 858.699 416.372C858.598 415.679 858.339 415.017 857.94 414.44C857.42 413.84 856.66 413.49 856.19 412.86C856.19 412.81 856.13 412.75 856.09 412.69C855.827 413.165 855.697 413.702 855.714 414.244C855.732 414.787 855.896 415.314 856.19 415.77C856.66 416.39 857.42 416.75 857.94 417.39Z" fill="black"/>
<path opacity="0.1" d="M872.75 379.62C872.75 378.51 872.8 377.41 872.75 376.32C872.54 372.32 871.81 368.32 871.64 364.32C871.41 369.18 872.49 374.32 872.75 379.23V379.62Z" fill="black"/>
</g>
<path d="M975.77 480.58L976.37 481C975.846 480.636 975.487 480.08 975.37 479.453C975.254 478.825 975.391 478.178 975.75 477.65L1002.75 438.49C1002.93 438.231 1003.16 438.009 1003.42 437.838C1003.69 437.667 1003.98 437.55 1004.29 437.493C1004.6 437.437 1004.92 437.442 1005.23 437.508C1005.54 437.574 1005.83 437.701 1006.09 437.88L1005.5 437.46C1005.92 437.747 1006.28 438.113 1006.55 438.538C1006.83 438.964 1007.02 439.439 1007.11 439.938C1007.21 440.437 1007.2 440.949 1007.09 441.445C1006.99 441.941 1006.79 442.412 1006.5 442.83L981.18 479.59C980.892 480.014 980.523 480.375 980.094 480.655C979.666 480.934 979.186 481.125 978.682 481.218C978.179 481.31 977.662 481.301 977.162 481.191C976.662 481.082 976.189 480.874 975.77 480.58V480.58Z" fill="#464353"/>
<path d="M1005.58 437.461L1006.22 437.903L976.521 481.024L975.879 480.581C975.499 480.319 975.238 479.917 975.154 479.463C975.071 479.01 975.171 478.541 975.433 478.161L1003.14 437.94C1003.27 437.746 1003.43 437.579 1003.62 437.45C1003.81 437.32 1004.03 437.231 1004.26 437.186C1004.49 437.142 1004.72 437.143 1004.95 437.19C1005.17 437.237 1005.39 437.329 1005.58 437.461V437.461Z" fill="#9F9EFF"/>
<path d="M1002.46 443.495L1002.34 443.41C1002.26 443.357 1002.16 443.376 1002.1 443.453L999.875 446.69C999.822 446.767 999.842 446.873 999.919 446.926L1000.04 447.011C1000.12 447.065 1000.23 447.045 1000.28 446.968L1002.51 443.731C1002.56 443.654 1002.54 443.548 1002.46 443.495Z" fill="#464353"/>
<path opacity="0.1" d="M949.27 378.65C948.84 376.56 947.13 375.03 945.95 373.25C943.01 368.82 943.47 362.96 944.84 357.82C945.345 356.418 945.559 354.928 945.47 353.44C945.274 352.5 944.885 351.611 944.327 350.83C943.769 350.048 943.055 349.391 942.23 348.9C938.62 346.53 933.99 346.5 929.94 345C924.05 342.82 918.72 337.45 912.58 338.75C909.22 339.46 906.64 342.06 903.74 343.89C900.534 345.91 896.848 347.039 893.06 347.16C889.88 347.26 886.67 346.64 883.54 347.16C882.978 347.261 882.426 347.411 881.89 347.61C879.228 346.704 876.432 346.258 873.62 346.29C870.861 346.226 868.146 346.985 865.82 348.47C861.59 351.47 860.46 357.22 860.53 362.39C860.6 367.56 861.47 372.89 859.88 377.81C857.88 383.94 852.36 388.61 851.24 394.95C850.48 399.26 851.9 403.61 853.17 407.8C856.81 419.8 859.22 433.12 854.39 444.73C853.16 447.67 851.32 450.58 848.39 451.93L858.65 451.32C858.761 452.045 858.728 452.785 858.552 453.497C858.377 454.209 858.063 454.88 857.628 455.47C857.194 456.061 856.647 456.56 856.019 456.939C855.392 457.319 854.695 457.57 853.97 457.68C856.558 457.517 859.101 456.933 861.5 455.95C862.698 455.45 863.757 454.667 864.584 453.667C865.412 452.667 865.983 451.48 866.25 450.21C866.45 448.82 866.15 447.37 866.54 446.03C867.21 443.72 869.54 442.45 871.49 440.97C876.49 437.07 878.87 430.5 879.06 424.15C879.25 417.8 877.57 411.56 875.77 405.46C873.97 399.36 872.04 393.23 871.77 386.88C871.653 384.558 871.869 382.231 872.41 379.97C872.78 380.66 873.19 381.34 873.62 381.97C876.1 385.75 879 389.34 880.52 393.6C881.057 395.619 881.78 397.585 882.68 399.47C883.74 401.27 885.68 402.76 887.77 402.47C889.86 402.18 891.38 399.92 892.07 397.8C892.76 395.68 893.07 393.37 894.34 391.56C896.78 388.14 901.66 387.83 905.86 387.96C914.71 388.24 926.92 389.58 933.86 382.78C935.18 381.49 935.86 379.52 937.86 380C939.7 380.43 940.73 383.43 942.7 384.1C945.92 385.21 950 382.21 949.27 378.65Z" fill="black"/>
<path d="M949.27 377.52C948.84 375.43 947.13 373.89 945.95 372.12C943.01 367.68 943.47 361.82 944.84 356.69C945.345 355.288 945.559 353.798 945.47 352.31C945.274 351.37 944.885 350.481 944.327 349.7C943.769 348.918 943.055 348.261 942.23 347.77C938.62 345.4 933.99 345.36 929.94 343.87C924.05 341.69 918.72 336.32 912.58 337.62C909.22 338.33 906.64 340.93 903.74 342.76C900.532 344.776 896.847 345.904 893.06 346.03C889.88 346.13 886.67 345.51 883.54 346.03C882.978 346.131 882.426 346.281 881.89 346.48C879.228 345.574 876.432 345.128 873.62 345.16C870.863 345.1 868.15 345.854 865.82 347.33C861.59 350.33 860.46 356.09 860.53 361.26C860.6 366.43 861.47 371.76 859.88 376.68C857.88 382.81 852.36 387.48 851.24 393.82C850.48 398.13 851.9 402.48 853.17 406.67C856.81 418.67 859.22 431.99 854.39 443.59C853.16 446.54 851.32 449.45 848.39 450.8L858.65 450.19C858.761 450.915 858.728 451.654 858.552 452.365C858.377 453.077 858.063 453.747 857.628 454.336C857.193 454.926 856.646 455.425 856.019 455.803C855.391 456.181 854.695 456.432 853.97 456.54C856.558 456.385 859.102 455.804 861.5 454.82C862.698 454.321 863.757 453.537 864.584 452.537C865.412 451.537 865.983 450.351 866.25 449.08C866.45 447.69 866.15 446.24 866.54 444.9C867.21 442.59 869.54 441.32 871.49 439.84C876.49 435.94 878.87 429.37 879.06 423.02C879.25 416.67 877.57 410.42 875.77 404.33C873.97 398.24 872.04 392.1 871.77 385.75C871.653 383.428 871.869 381.101 872.41 378.84C872.78 379.53 873.19 380.21 873.62 380.84C876.1 384.62 879 388.21 880.52 392.47C881.055 394.487 881.778 396.449 882.68 398.33C883.74 400.13 885.68 401.63 887.77 401.33C889.86 401.03 891.38 398.79 892.07 396.67C892.76 394.55 893.07 392.24 894.34 390.43C896.78 387.01 901.66 386.7 905.86 386.83C914.71 387.11 926.92 388.45 933.86 381.65C935.18 380.36 935.86 378.39 937.86 378.87C939.7 379.3 940.73 382.3 942.7 382.97C945.92 384.08 950 381.08 949.27 377.52Z" fill="#464353"/>
<g opacity="0.1">
<path opacity="0.1" d="M860.56 359.29C860.56 359.957 860.56 360.623 860.56 361.29C860.56 363.45 860.74 365.64 860.82 367.81C860.91 365.01 860.66 362.14 860.56 359.29Z" fill="black"/>
<path opacity="0.1" d="M857.06 427.3C857.33 419.3 855.51 411.05 853.17 403.3C852.23 400.524 851.56 397.664 851.17 394.76C850.74 398.76 852.03 402.76 853.17 406.7C855.337 413.373 856.644 420.296 857.06 427.3V427.3Z" fill="black"/>
<path opacity="0.1" d="M943.84 362.33C944.005 360.424 944.34 358.537 944.84 356.69C945.345 355.288 945.559 353.798 945.47 352.31C945.428 352.049 945.365 351.791 945.28 351.54C945.16 352.13 945 352.71 944.84 353.29C943.991 356.224 943.653 359.282 943.84 362.33Z" fill="black"/>
<path opacity="0.1" d="M858.68 446.84L852.48 447.2C851.478 448.756 850.076 450.013 848.42 450.84L858.1 450.27C858.681 449.227 858.886 448.016 858.68 446.84V446.84Z" fill="black"/>
<path opacity="0.1" d="M949 376.64C948.47 377.802 947.545 378.737 946.388 379.277C945.232 379.818 943.921 379.929 942.69 379.59C940.69 378.92 939.69 375.92 937.85 375.49C935.85 375.01 935.17 376.99 933.85 378.28C926.92 385.07 914.71 383.73 905.85 383.45C901.65 383.32 896.77 383.63 894.33 387.05C893.03 388.86 892.74 391.18 892.06 393.3C891.38 395.42 889.96 397.62 887.76 397.96C885.56 398.3 883.76 396.79 882.67 394.96C881.772 393.078 881.049 391.116 880.51 389.1C878.99 384.84 876.09 381.24 873.61 377.46C873.18 376.82 872.77 376.14 872.4 375.46C871.858 377.725 871.643 380.055 871.76 382.38C871.76 382.54 871.76 382.71 871.76 382.87C871.839 381.522 872.04 380.183 872.36 378.87C872.73 379.56 873.14 380.24 873.57 380.87C876.05 384.65 878.95 388.24 880.47 392.5C881.005 394.517 881.728 396.479 882.63 398.36C883.69 400.16 885.63 401.66 887.72 401.36C889.81 401.06 891.33 398.82 892.02 396.7C892.71 394.58 893.02 392.27 894.29 390.46C896.73 387.04 901.61 386.73 905.81 386.86C914.66 387.14 926.87 388.48 933.81 381.68C935.13 380.39 935.81 378.42 937.81 378.9C939.65 379.33 940.68 382.33 942.65 383C945.88 384.09 949.96 381.09 949.23 377.53C949.173 377.229 949.096 376.932 949 376.64Z" fill="black"/>
<path opacity="0.1" d="M871.52 436.48C869.62 437.96 867.24 439.23 866.57 441.54C866.18 442.89 866.48 444.33 866.28 445.72C866.015 446.993 865.444 448.181 864.616 449.183C863.788 450.185 862.729 450.97 861.53 451.47C860.584 451.905 859.595 452.24 858.58 452.47C858.302 453.528 857.721 454.482 856.906 455.212C856.092 455.943 855.082 456.419 854 456.58C856.588 456.426 859.132 455.844 861.53 454.86C862.728 454.361 863.786 453.577 864.614 452.577C865.441 451.577 866.013 450.391 866.28 449.12C866.48 447.73 866.18 446.28 866.57 444.94C867.24 442.63 869.57 441.36 871.52 439.88C876.52 435.98 878.9 429.41 879.09 423.06C879.09 422.11 879.09 421.17 879.09 420.23C878.73 426.39 876.36 432.7 871.52 436.48Z" fill="black"/>
</g>
<path d="M455.5 818.8H455.73C455.73 818.8 419.01 719.22 408.73 705.69C408.73 705.69 397.96 699.4 398.45 688.77L385.24 625.39C385.24 625.39 385.44 625.2 385.77 624.84L386.05 624.53C386.15 624.42 386.26 624.3 386.37 624.16C388.134 622.113 389.611 619.835 390.76 617.39C390.83 617.23 390.91 617.08 390.98 616.92C391.471 615.81 391.882 614.668 392.21 613.5C393.134 613.82 394.146 613.766 395.03 613.35C395.03 613.35 395.03 613.01 395.03 612.4C395.03 612.4 394.9 608.65 394.89 602.79C394.89 601.15 394.89 599.37 394.89 597.48C395.318 595.958 395.668 594.416 395.94 592.86L395.4 592.61C395.4 592.53 395.4 592.46 395.45 592.38L395 592.17C395.36 578.27 396.56 560.51 400 548.41C400.12 547.98 400.24 547.56 400.37 547.14C404.45 533.93 404.54 517.8 405.59 504.14C406.415 505.85 407.123 507.614 407.71 509.42C408.229 508.846 408.829 508.351 409.49 507.95L413.59 540.36V578.54C413.59 578.54 406.73 627.85 428.27 618.67C449.81 609.49 434.15 575.67 434.15 575.67C434.15 575.67 434.15 556.82 437.09 547.15C439.02 540.79 437.77 520.15 436.69 506.86C438.75 507.23 440.02 507.52 440.02 507.52C440.498 505.581 440.713 503.586 440.66 501.59C441.1 479.31 413.27 443.39 401.92 429.69C398.671 424.795 394.154 420.876 388.85 418.35L367.08 407.94C367.08 407.94 356.83 405.39 352.83 397.59C352.83 397.46 352.76 397.32 352.73 397.18C353.18 396.98 353.63 396.77 354.07 396.54C357.383 394.961 360.293 392.65 362.58 389.78C367.22 383.96 369.43 376.67 371.58 369.57C374.07 361.23 376.58 352.7 376.25 344C375.92 335.3 372.25 326.26 364.74 321.64C358.35 317.7 349.45 316.95 345.49 310.64C344.42 308.94 343.77 306.92 342.34 305.54C342.352 305.248 342.256 304.962 342.072 304.736C341.888 304.51 341.628 304.358 341.34 304.31L330.24 302.17C329.929 302.111 329.607 302.176 329.343 302.352C329.08 302.527 328.895 302.8 328.83 303.11V303.26C319.036 303.528 309.42 305.942 300.66 310.33C297.554 311.824 294.571 313.563 291.74 315.53C287.74 318.35 283.74 322.07 283.18 326.91C282.89 329.32 283.48 331.79 282.98 334.15C281.66 340.47 273.09 344.58 274.34 350.91C275.18 355.21 280.11 357.06 284.72 357.07C283.867 360.079 283.433 363.192 283.43 366.32C283.47 374.257 286.25 381.936 291.299 388.06C296.348 394.184 303.357 398.377 311.14 399.93C314.497 404.59 317.438 409.535 319.93 414.71C314.29 420 302.48 432.28 309.72 436.41L294.72 473.15L296.18 511.04L289.83 516.65L291.22 518.37C284.11 526.55 267.63 544.44 255.59 549.2C253.865 549.886 252.193 550.702 250.59 551.64C248.382 553.019 245.932 553.966 243.37 554.43C242.251 554.544 241.143 554.755 240.06 555.06L237.19 549.17C236.69 548.147 235.806 547.364 234.731 546.989C233.657 546.615 232.477 546.68 231.45 547.17L229.69 548.01L225.5 550.01L223.76 550.84L222.43 551.47C221.925 551.708 221.471 552.045 221.097 552.46C220.722 552.875 220.433 553.36 220.247 553.888C220.061 554.415 219.982 554.974 220.013 555.532C220.045 556.09 220.186 556.637 220.43 557.14L223.91 564.27C218.96 568.58 216.54 573.73 223.28 578.51C225.897 580.396 229.056 581.378 232.28 581.31L234.4 585.64C234.899 586.661 235.78 587.445 236.854 587.819C237.927 588.194 239.104 588.129 240.13 587.64L243.2 586.18L249.2 583.35C249.706 583.113 250.16 582.778 250.536 582.364C250.911 581.95 251.2 581.466 251.386 580.939C251.572 580.412 251.652 579.853 251.62 579.296C251.588 578.738 251.445 578.192 251.2 577.69L249.46 574.12C253.348 571.139 256.914 567.761 260.1 564.04C260.1 564.04 269.03 558.51 274.29 557.28C277.78 556.46 290.03 548.53 297.57 543.51L299.72 599.33C299.238 600.052 298.682 600.723 298.06 601.33L299.75 600.15V600.56C299.5 600.84 299.26 601.1 299.02 601.33L299.75 600.81V601.48C299.517 601.768 299.263 602.039 298.99 602.29L299.76 601.75L299.98 607.55L303.67 601.55L303.9 607.55L304.76 606.14C294.42 623.49 280.95 649.03 273.76 674.74C273.76 674.74 262.51 694.07 263.97 713.89L243.27 811.99L243.67 812.14C236.96 816.91 222.86 825.66 209.01 826.01C209.01 826.01 175.72 825.01 185.01 832.29C194.3 839.57 277.01 850.18 277.01 850.18L280.19 825.74L280.93 826.01C280.93 826.01 280.93 825.87 280.88 825.63L281.88 826.01C281.88 826.01 279.88 813.92 287.26 807.16C294.64 800.4 311.74 731.75 310.26 721.16C310.26 721.16 323.4 688.73 339.85 662.87L359.21 711.98L380.75 748.72C380.75 748.72 409.4 811.62 408.48 825.64C402.48 832.9 391.7 844.27 383.69 843.94C383.69 843.94 350.89 850.23 373.41 856.03C395.93 861.83 462.01 840.03 462.01 840.03L455.5 818.8ZM312.09 593.89L312.29 593.78C311.29 595.33 310.18 597.06 309 598.95L312.09 593.89Z" fill="url(#paint1_linear)"/>
<path d="M297.88 601.3C297.07 601.87 296.63 602.2 296.63 602.2C297.089 601.963 297.51 601.66 297.88 601.3Z" fill="url(#paint2_linear)"/>
<path d="M298.86 602.26L297.61 603.17C298.069 602.929 298.49 602.623 298.86 602.26V602.26Z" fill="url(#paint3_linear)"/>
<path d="M298.86 601.3C298.05 601.87 297.61 602.2 297.61 602.2C298.069 601.963 298.49 601.66 298.86 601.3Z" fill="url(#paint4_linear)"/>
<path d="M410.87 820.2C410.87 820.2 393.69 844.54 382.24 844.06C382.24 844.06 350.24 850.26 372.24 855.99C394.24 861.72 458.63 840.24 458.63 840.24L450.97 815.24L410.87 820.2Z" fill="#333333"/>
<path d="M334.03 651.25L358.36 713.77L379.36 750.04C379.36 750.04 408.24 814.23 406.36 826.64L452.36 819.24C452.36 819.24 416.57 720.93 406.55 707.57C406.55 707.57 396.05 701.36 396.55 690.86L383.67 628.39C383.67 628.39 396.2 616.3 389.2 601.15C388.828 600.345 388.414 599.561 387.96 598.8C378.42 582.58 342.15 591.64 342.15 591.64L334.03 651.25Z" fill="#535461"/>
<path opacity="0.03" d="M334.03 651.25L358.36 713.77L379.36 750.04C379.36 750.04 408.24 814.23 406.36 826.64L452.36 819.24C452.36 819.24 416.57 720.93 406.55 707.57C406.55 707.57 396.05 701.36 396.55 690.86L383.67 628.39C383.67 628.39 396.2 616.3 389.2 601.15C388.828 600.345 388.414 599.561 387.96 598.8C378.42 582.58 342.15 591.64 342.15 591.64L334.03 651.25Z" fill="black"/>
<g opacity="0.1">
<path opacity="0.1" d="M406.58 707.57C406.58 707.57 396.08 701.36 396.58 690.86L383.67 628.39C383.67 628.39 396.2 616.3 389.2 601.15C388.828 600.345 388.414 599.561 387.96 598.8C383.33 590.93 372.42 589.01 362.4 589.12C372.01 589.21 382.12 591.31 386.53 598.8C386.985 599.559 387.395 600.343 387.76 601.15C394.76 616.3 382.24 628.39 382.24 628.39L395.12 690.91C394.65 701.41 405.12 707.62 405.12 707.62C415.12 720.98 450.93 819.29 450.93 819.29L406.36 826.39C406.36 826.46 406.36 826.55 406.36 826.62L452.36 819.22C452.36 819.22 416.6 720.93 406.58 707.57Z" fill="black"/>
</g>
<path d="M249.56 809.7C249.56 809.7 230.47 825.92 211.86 826.4C211.86 826.4 179.41 825.4 188.47 832.61C197.53 839.82 278.2 850.26 278.2 850.26L281.79 822.39L249.56 809.7Z" fill="#333333"/>
<g opacity="0.1">
<path opacity="0.1" d="M319.72 587.78C319.72 587.78 288.22 632.16 275.81 677.02C275.81 677.02 264.81 696.11 266.27 715.68L246.22 812.56L282.97 826.39C282.97 826.39 281.06 814.46 288.22 807.78C295.38 801.1 312.08 733.33 310.65 722.83C310.65 722.83 333.56 665.56 356.47 643.13C379.38 620.7 390.77 615.52 394.14 596.13C394.14 596.16 340.24 570.12 319.72 587.78Z" fill="black"/>
</g>
<path d="M318.76 587.78C318.76 587.78 287.26 632.16 274.86 677.02C274.86 677.02 263.86 696.11 265.31 715.68L245.31 812.56L282.01 826.39C282.01 826.39 280.11 814.46 287.26 807.78C294.41 801.1 311.13 733.33 309.69 722.83C309.69 722.83 332.6 665.56 355.51 643.13C378.42 620.7 389.82 615.52 393.19 596.13C393.19 596.16 339.28 570.12 318.76 587.78Z" fill="#535461"/>
<g opacity="0.1">
<path opacity="0.1" d="M339.11 581.171C362.77 581.451 392.23 595.69 392.23 595.69C388.86 615.05 377.46 620.23 354.56 642.69C331.66 665.15 308.74 722.39 308.74 722.39C310.17 732.89 293.47 800.661 286.31 807.34C280.08 813.161 280.72 822.95 280.99 825.39L282.49 825.95C282.49 825.95 280.58 814.02 287.74 807.34C294.9 800.661 311.6 732.89 310.17 722.39C310.17 722.39 333.08 665.12 355.99 642.69C378.9 620.26 390.3 615.08 393.66 595.69C393.66 595.69 362.99 580.871 339.11 581.171Z" fill="black"/>
</g>
<path d="M295.36 518.57C295.36 518.57 272.58 546.94 257.2 553.1C255.51 553.779 253.872 554.581 252.3 555.5C250.163 556.858 247.788 557.794 245.3 558.26C243.459 558.433 241.658 558.906 239.97 559.66C231.97 563.34 213.54 573.3 225.71 582.05C240.98 593.05 261.5 567.73 261.5 567.73C261.5 567.73 270.21 562.27 275.34 561.05C280.47 559.83 303.97 543.39 303.97 543.39L295.36 518.57Z" fill="#ECB4B6"/>
<path d="M299.67 512.85L290.6 520.96L303.96 537.66L299.67 512.85Z" fill="#6C63FF"/>
<g opacity="0.1">
<path opacity="0.1" d="M299.67 512.85L290.6 520.96L303.96 537.66L299.67 512.85Z" fill="black"/>
</g>
<path d="M322.65 417.87C322.65 417.87 300.93 436.49 310.03 441.74L295.36 478.01L300.41 610.68L321.12 576.32L306.97 501.87C306.97 501.87 302.97 457.49 314.55 446.99L325.66 424.99L322.65 417.87Z" fill="#6C63FF"/>
<g opacity="0.1">
<path opacity="0.1" d="M325.52 411.22C325.52 411.22 303.8 429.84 312.89 435.09L298.24 471.39L303.29 604.06L324 569.7L309.86 495.22C309.86 495.22 305.86 450.84 317.43 440.34L328.55 418.34L325.52 411.22Z" fill="black"/>
</g>
<path d="M305.88 398.31C305.88 398.31 323.54 419.78 323.06 432.19C322.58 444.6 356.47 410.72 356.47 410.72C356.47 410.72 343.58 394.97 346.92 378.26C350.26 361.55 305.88 398.31 305.88 398.31Z" fill="#ECB4B6"/>
<path d="M406.58 506.17L411.36 544.39V582.09C411.36 582.09 404.68 630.77 425.68 621.7C446.68 612.63 431.36 579.19 431.36 579.19C431.36 579.19 431.36 560.57 434.23 551.03C437.1 541.49 432.8 499.48 432.8 499.48L406.58 506.17Z" fill="#ECB4B6"/>
<path d="M341.19 415.97C341.19 415.97 328.36 428.39 321.63 424.08L312.47 446.85C306.871 460.777 304.33 475.745 305.02 490.74L308.26 576.8L322.58 574.89L327.36 493.28L334.52 443.65L341.19 415.97Z" fill="#F2F2F2"/>
<g opacity="0.1">
<path opacity="0.1" d="M351.93 402.84C351.93 402.84 334.99 414.53 330.22 424.56C330.22 424.56 329.74 435.56 325.92 440.31C322.1 445.06 318.29 468.94 317.33 497.58C316.37 526.22 312.08 564.39 312.08 564.39C312.08 564.39 304.92 601.62 297.29 605.39C297.29 605.39 332.6 578.67 349.78 587.74C366.96 596.81 386.53 618.74 392.26 615.42C392.26 615.42 390.88 573.59 397.14 551.28C397.26 550.86 397.38 550.44 397.51 550.03C404.19 528.08 399.9 498.03 407.51 485.13C407.51 485.13 407.51 461.8 403.11 444.38C401.97 439.932 399.872 435.786 396.961 432.235C394.05 428.683 390.398 425.811 386.26 423.82L365.06 413.58C365.06 413.58 353.84 411.91 351.93 402.84Z" fill="black"/>
</g>
<g opacity="0.1">
<path opacity="0.1" d="M351.93 402.84C351.93 402.84 335.93 415.49 331.17 425.51C331.17 425.51 330.69 436.51 326.88 441.26C323.07 446.01 319.24 469.9 318.29 498.53C317.34 527.16 313.04 565.39 313.04 565.39C313.04 565.39 305.88 602.61 298.24 606.39C298.24 606.39 333.56 579.66 350.74 588.73C367.92 597.8 387.49 619.73 393.21 616.41C393.21 616.41 391.84 574.59 398.1 552.28C398.22 551.85 398.34 551.44 398.46 551.03C405.15 529.03 400.85 499.03 408.46 486.12C408.46 486.12 408.46 462.79 404.05 445.38C402.914 440.93 400.818 436.783 397.909 433.229C395 429.676 391.348 426.802 387.21 424.81L365.98 414.53C365.98 414.53 353.84 411.91 351.93 402.84Z" fill="black"/>
</g>
<path d="M351.69 402.6C351.69 402.6 335.94 414.53 331.17 424.6C331.17 424.6 330.69 435.6 326.88 440.35C323.07 445.1 319.24 468.98 318.29 497.62C317.34 526.26 313.04 564.39 313.04 564.39C313.04 564.39 305.88 601.62 298.24 605.39C298.24 605.39 333.56 578.67 350.74 587.74C367.92 596.81 387.49 618.74 393.21 615.42C393.21 615.42 391.84 573.59 398.1 551.28L398.46 550.03C405.15 528.08 400.85 498.03 408.46 485.13C408.46 485.13 408.46 461.8 404.05 444.38C402.914 439.931 400.818 435.785 397.909 432.233C394.999 428.682 391.348 425.81 387.21 423.82L365.98 413.54C365.98 413.54 355.27 410.95 351.69 402.6Z" fill="#6C63FF"/>
<g opacity="0.1">
<path opacity="0.1" d="M395.36 430.52C395.36 430.52 443.8 485.64 437.12 511.89C437.12 511.89 412.3 506.17 405.62 513.8C405.62 513.8 400.37 496.14 384.62 486.12C368.87 476.1 354.36 411.91 395.36 430.52Z" fill="black"/>
</g>
<path d="M395.36 429.57C395.36 429.57 443.8 484.69 437.12 510.94C437.12 510.94 412.3 505.21 405.62 512.85C405.62 512.85 400.37 495.19 384.62 485.17C368.87 475.15 354.36 410.95 395.36 429.57Z" fill="#6C63FF"/>
<g opacity="0.1">
<path opacity="0.1" d="M348.11 389C347.36 385.15 347.99 384.86 348.83 380.65C352.17 363.95 307.83 400.65 307.83 400.65C307.83 400.65 310.3 403.65 313.36 408.07C315.62 408.537 317.922 408.772 320.23 408.77C332.36 408.81 342.13 398.57 348.11 389Z" fill="black"/>
</g>
<path d="M318.28 406.41C336.991 406.41 352.16 391.242 352.16 372.53C352.16 353.819 336.991 338.65 318.28 338.65C299.569 338.65 284.4 353.819 284.4 372.53C284.4 391.242 299.569 406.41 318.28 406.41Z" fill="#ECB4B6"/>
<g opacity="0.1">
<path opacity="0.1" d="M287.84 363.26C282.84 363.93 276.49 362.26 275.53 357.32C274.32 351.08 282.67 347.01 283.96 340.78C284.45 338.44 283.87 336 284.15 333.63C284.71 328.85 288.57 325.17 292.5 322.4C304.949 313.664 320.094 309.628 335.24 311.01C337.13 311.031 338.971 311.612 340.53 312.68C342.18 314.04 342.81 316.23 343.93 318.04C347.8 324.29 356.47 325.04 362.7 328.92C369.99 333.47 373.59 342.4 373.92 350.99C374.25 359.58 371.8 367.99 369.37 376.24C367.31 383.24 365.15 390.44 360.63 396.18C356.11 401.92 348.63 405.94 341.5 404.18C344.76 401.83 342.4 396.39 338.87 394.48C335.34 392.57 330.97 392.24 327.96 389.61C324.95 386.98 324.04 382.66 323.05 378.74C321.81 373.74 320.05 368.74 316.41 365.15C309.36 358.09 296.54 362.09 287.84 363.26Z" fill="black"/>
</g>
<path d="M288.8 362.78C283.8 363.46 277.45 361.78 276.48 356.85C275.27 350.6 283.62 346.54 284.92 340.3C285.4 337.96 284.82 335.53 285.1 333.15C285.66 328.37 289.53 324.7 293.46 321.92C305.907 313.188 321.048 309.152 336.19 310.53C338.081 310.554 339.922 311.139 341.48 312.21C343.13 313.56 343.77 315.75 344.89 317.56C348.75 323.81 357.43 324.56 363.66 328.44C370.94 332.99 374.55 341.93 374.87 350.51C375.19 359.09 372.75 367.51 370.33 375.76C368.26 382.76 366.11 389.97 361.58 395.71C357.05 401.45 349.58 405.46 342.46 403.71C345.71 401.37 343.35 395.92 339.83 394.01C336.31 392.1 331.93 391.78 328.91 389.14C325.89 386.5 324.99 382.19 324.01 378.27C322.77 373.32 321.01 368.27 317.37 364.69C310.28 357.61 297.49 361.61 288.8 362.78Z" fill="#464353"/>
<path d="M338.74 328.39L341.81 312.67C341.839 312.519 341.838 312.364 341.807 312.213C341.776 312.063 341.715 311.92 341.629 311.792C341.543 311.665 341.432 311.556 341.303 311.472C341.175 311.387 341.031 311.329 340.88 311.3L330.06 309.19C329.909 309.16 329.754 309.159 329.604 309.189C329.453 309.219 329.31 309.278 329.183 309.364C329.055 309.45 328.946 309.56 328.862 309.688C328.777 309.816 328.719 309.959 328.69 310.11L325.62 325.82L315.13 364.62L334.36 368.39L338.74 328.39Z" fill="#6C63FF"/>
<g opacity="0.1">
<path opacity="0.1" d="M284.55 341.55C285.255 340.479 285.763 339.29 286.05 338.04C286.53 335.7 285.95 333.26 286.23 330.89C286.335 330.045 286.54 329.216 286.84 328.42C285.915 329.847 285.321 331.463 285.1 333.15C284.82 335.53 285.4 337.96 284.91 340.3C284.826 340.726 284.706 341.145 284.55 341.55V341.55Z" fill="black"/>
<path opacity="0.1" d="M362.71 393.44C358.26 399.1 350.91 403.06 343.91 401.53C343.718 402.419 343.201 403.204 342.46 403.73C349.56 405.46 357.06 401.45 361.58 395.73C363.277 393.538 364.707 391.151 365.84 388.62C364.945 390.318 363.897 391.931 362.71 393.44V393.44Z" fill="black"/>
<path opacity="0.1" d="M343.96 401.14C346.63 398.66 344.33 393.6 340.96 391.77C337.43 389.86 333.06 389.53 330.04 386.9C327.02 384.27 326.12 379.95 325.14 376.02C323.9 371.07 322.14 366.02 318.5 362.44C311.41 355.35 298.62 359.35 289.93 360.52C284.93 361.19 278.58 359.52 277.62 354.58C277.393 353.413 277.49 352.206 277.9 351.09C277.296 351.909 276.86 352.84 276.616 353.828C276.372 354.817 276.326 355.844 276.48 356.85C277.48 361.79 283.81 363.46 288.8 362.78C297.49 361.61 310.28 357.61 317.37 364.71C320.97 368.32 322.77 373.34 324.01 378.29C325.01 382.21 325.86 386.5 328.91 389.16C331.96 391.82 336.3 392.16 339.83 394.03C342.36 395.39 344.27 398.59 343.96 401.14Z" fill="black"/>
</g>
<g opacity="0.1">
<path opacity="0.1" d="M322.82 389.95C332.043 389.95 339.52 382.473 339.52 373.25C339.52 364.027 332.043 356.55 322.82 356.55C313.597 356.55 306.12 364.027 306.12 373.25C306.12 382.473 313.597 389.95 322.82 389.95Z" fill="black"/>
</g>
<path d="M322.82 390.43C332.043 390.43 339.52 382.953 339.52 373.73C339.52 364.507 332.043 357.03 322.82 357.03C313.597 357.03 306.12 364.507 306.12 373.73C306.12 382.953 313.597 390.43 322.82 390.43Z" fill="#6C63FF"/>
<path d="M322.82 384.67C328.862 384.67 333.76 379.772 333.76 373.73C333.76 367.688 328.862 362.79 322.82 362.79C316.778 362.79 311.88 367.688 311.88 373.73C311.88 379.772 316.778 384.67 322.82 384.67Z" fill="#333333"/>
<path d="M322.82 377.07C324.665 377.07 326.16 375.574 326.16 373.73C326.16 371.885 324.665 370.39 322.82 370.39C320.975 370.39 319.48 371.885 319.48 373.73C319.48 375.574 320.975 377.07 322.82 377.07Z" fill="#6C63FF"/>
<path opacity="0.05" d="M339.02 326.994L325.907 324.434L325.815 324.905L338.928 327.465L339.02 326.994Z" fill="black"/>
<path d="M229.976 552.909L226.778 554.451C223.624 555.971 222.3 559.761 223.82 562.915L235.516 587.173C237.036 590.327 240.826 591.651 243.98 590.13L247.178 588.589C250.332 587.068 251.656 583.278 250.135 580.124L238.44 555.867C236.919 552.712 233.13 551.388 229.976 552.909Z" fill="#CBDAE3"/>
<path d="M234.38 550.785L222.373 556.574C221.652 556.922 221.349 557.789 221.697 558.51L237.639 591.578C237.987 592.299 238.854 592.602 239.575 592.254L251.583 586.465C252.304 586.117 252.607 585.251 252.259 584.529L236.316 551.462C235.968 550.74 235.102 550.438 234.38 550.785Z" fill="#535461"/>
<path d="M235.915 550.048L223.826 555.877C223.011 556.27 222.668 557.25 223.061 558.066L238.839 590.791C239.232 591.607 240.213 591.95 241.029 591.556L253.117 585.728C253.933 585.335 254.275 584.354 253.882 583.539L238.104 550.814C237.711 549.998 236.731 549.655 235.915 550.048Z" fill="#6C63FF"/>
<path d="M236.801 552.8L225.434 558.28L238.493 585.367L249.86 579.886L236.801 552.8Z" fill="#F2F2F2"/>
<path d="M246.675 587.255C247.386 586.912 247.591 585.864 247.133 584.914C246.675 583.964 245.727 583.472 245.016 583.815C244.304 584.158 244.099 585.206 244.557 586.156C245.015 587.106 245.963 587.598 246.675 587.255Z" fill="#F2F2F2"/>
<g opacity="0.1">
<path opacity="0.1" d="M333.76 557.28C340.474 557.356 347.118 558.664 353.36 561.14C363.36 565.2 373.95 561.14 373.95 561.14C373.95 561.14 343.79 552.39 333.76 557.28Z" fill="black"/>
</g>
<path d="M677.99 737.62C677.99 737.62 684.21 745.75 675.12 758.03C666.03 770.31 658.54 780.67 661.57 788.32C661.57 788.32 675.28 765.52 686.44 765.2C697.6 764.88 690.27 751.33 677.99 737.62Z" fill="#6C63FF"/>
<path opacity="0.1" d="M677.99 737.62C678.533 738.405 678.961 739.264 679.26 740.17C690.15 752.96 695.96 764.9 685.49 765.17C675.74 765.45 664.04 782.89 661.24 787.29C661.331 787.63 661.441 787.964 661.57 788.29C661.57 788.29 675.28 765.49 686.44 765.17C697.6 764.85 690.27 751.33 677.99 737.62Z" fill="black"/>
<path d="M689.55 747.98C689.55 750.85 689.23 753.17 688.84 753.17C688.45 753.17 688.12 750.85 688.12 747.98C688.12 745.11 688.52 746.47 688.92 746.47C689.32 746.47 689.55 745.12 689.55 747.98Z" fill="#FFD037"/>
<path d="M693.52 751.39C691.01 752.76 688.82 753.59 688.63 753.24C688.44 752.89 690.32 751.5 692.83 750.13C695.34 748.76 694.36 749.76 694.55 750.13C694.74 750.5 696.03 750.03 693.52 751.39Z" fill="#FFD037"/>
<path d="M645.15 737.62C645.15 737.62 638.93 745.75 648.02 758.03C657.11 770.31 664.6 780.67 661.57 788.32C661.57 788.32 647.86 765.52 636.7 765.2C625.54 764.88 632.87 751.33 645.15 737.62Z" fill="#6C63FF"/>
<path opacity="0.1" d="M645.15 737.62C644.607 738.405 644.18 739.264 643.88 740.17C632.99 752.96 627.19 764.9 637.66 765.17C647.41 765.45 659.1 782.89 661.9 787.29C661.81 787.63 661.7 787.964 661.57 788.29C661.57 788.29 647.86 765.49 636.7 765.17C625.54 764.85 632.87 751.33 645.15 737.62Z" fill="black"/>
<path d="M633.59 747.98C633.59 750.85 633.91 753.17 634.31 753.17C634.71 753.17 635.03 750.85 635.03 747.98C635.03 745.11 634.62 746.47 634.23 746.47C633.84 746.47 633.59 745.12 633.59 747.98Z" fill="#FFD037"/>
<path d="M629.62 751.39C632.14 752.76 634.33 753.59 634.52 753.24C634.71 752.89 632.82 751.5 630.31 750.13C627.8 748.76 628.79 749.76 628.6 750.13C628.41 750.5 627.11 750.03 629.62 751.39Z" fill="#FFD037"/>
<path d="M635.57 787.26C635.57 787.26 652.96 786.72 658.2 782.99C663.44 779.26 684.94 774.81 686.2 780.79C687.46 786.77 712.32 810.55 692.7 810.71C673.08 810.87 647.09 807.65 641.86 804.46C636.63 801.27 635.57 787.26 635.57 787.26Z" fill="#A8A8A8"/>
<path opacity="0.2" d="M693.09 808.62C673.46 808.78 647.48 805.57 642.25 802.38C638.25 799.96 636.68 791.25 636.15 787.24H635.57C635.57 787.24 636.67 801.24 641.9 804.44C647.13 807.64 673.11 810.85 692.74 810.69C698.4 810.64 700.36 808.63 700.25 805.64C699.47 807.46 697.3 808.59 693.09 808.62Z" fill="black"/>
<path d="M602.05 800.02C603.489 798.831 604.534 797.234 605.05 795.44C605.44 793.63 604.66 791.44 602.93 790.79C600.93 790.04 598.93 791.39 597.33 792.79C595.73 794.19 593.94 795.71 591.88 795.42C592.941 794.458 593.735 793.238 594.184 791.878C594.632 790.518 594.721 789.064 594.44 787.66C594.35 787.079 594.105 786.533 593.73 786.08C592.65 784.93 590.73 785.43 589.4 786.34C585.29 789.23 584.14 794.81 584.12 799.84C583.7 798.03 584.05 796.14 584.04 794.28C584.03 792.42 583.52 790.36 581.95 789.36C580.976 788.83 579.878 788.571 578.77 788.61C576.92 788.54 574.86 788.72 573.6 790.08C572.03 791.76 572.44 794.58 573.8 796.42C575.16 798.26 577.24 799.42 579.15 800.71C580.685 801.619 581.991 802.868 582.97 804.36C583.092 804.564 583.189 804.783 583.26 805.01H594.85C597.466 803.682 599.888 802.004 602.05 800.02V800.02Z" fill="#6C63FF"/>
<path d="M523.49 793.53C523.49 793.53 512.37 755.8 525.57 728.03C531.17 716.413 532.851 703.293 530.36 690.64C529.131 684.642 527.361 678.768 525.07 673.09" stroke="#535461" stroke-width="2" stroke-miterlimit="10"/>
<path d="M533.36 655.54C533.36 660.16 524.98 673.54 524.98 673.54C524.98 673.54 516.61 660.13 516.61 655.54C516.685 653.369 517.6 651.312 519.163 649.802C520.725 648.293 522.812 647.449 524.985 647.449C527.157 647.449 529.245 648.293 530.807 649.802C532.37 651.312 533.285 653.369 533.36 655.54V655.54Z" fill="#6C63FF"/>
<path d="M547.15 681.15C544.63 685.04 530.32 691.74 530.32 691.74C530.32 691.74 530.58 675.93 533.09 672.05C534.297 670.185 536.194 668.876 538.366 668.411C540.538 667.946 542.805 668.363 544.67 669.57C546.534 670.776 547.843 672.674 548.308 674.846C548.773 677.018 548.357 679.285 547.15 681.15V681.15Z" fill="#6C63FF"/>
<path d="M546.54 724.92C542.41 727.01 526.67 725.57 526.67 725.57C526.67 725.57 534.87 712.05 539 709.97C539.982 709.475 541.051 709.178 542.147 709.096C543.244 709.015 544.346 709.15 545.39 709.494C546.434 709.838 547.4 710.384 548.233 711.102C549.066 711.819 549.75 712.693 550.245 713.675C550.74 714.657 551.037 715.726 551.119 716.823C551.2 717.919 551.065 719.021 550.721 720.065C550.377 721.109 549.831 722.075 549.114 722.908C548.396 723.741 547.522 724.425 546.54 724.92Z" fill="#6C63FF"/>
<path d="M538.63 757.94C534.91 760.69 519.15 761.94 519.15 761.94C519.15 761.94 524.95 747.23 528.67 744.48C530.456 743.154 532.696 742.592 534.897 742.917C537.097 743.243 539.079 744.429 540.405 746.215C541.731 748.002 542.293 750.241 541.968 752.442C541.642 754.643 540.456 756.624 538.67 757.95L538.63 757.94Z" fill="#6C63FF"/>
<path d="M512.74 692.64C516.05 695.86 531.51 699.2 531.51 699.2C531.51 699.2 527.72 683.85 524.41 680.63C523.625 679.849 522.693 679.231 521.668 678.812C520.642 678.394 519.544 678.183 518.437 678.192C517.329 678.201 516.235 678.429 515.216 678.864C514.198 679.299 513.276 679.932 512.504 680.726C511.732 681.52 511.125 682.459 510.718 683.489C510.312 684.519 510.114 685.62 510.136 686.727C510.158 687.834 510.399 688.926 510.846 689.94C511.293 690.953 511.937 691.867 512.74 692.63V692.64Z" fill="#6C63FF"/>
<path d="M503.97 731.39C508.1 733.48 523.84 732.04 523.84 732.04C523.84 732.04 515.64 718.52 511.51 716.44C510.525 715.945 509.452 715.649 508.353 715.568C507.253 715.488 506.149 715.625 505.102 715.971C504.056 716.317 503.088 716.866 502.254 717.587C501.419 718.307 500.735 719.185 500.24 720.17C499.745 721.155 499.449 722.228 499.368 723.327C499.288 724.427 499.424 725.531 499.771 726.578C500.117 727.624 500.666 728.592 501.387 729.427C502.107 730.261 502.985 730.945 503.97 731.44V731.39Z" fill="#6C63FF"/>
<path d="M500.61 770.17C504.33 772.92 520.09 774.17 520.09 774.17C520.09 774.17 514.29 759.46 510.57 756.71C509.686 756.053 508.682 755.577 507.614 755.309C506.546 755.04 505.436 754.985 504.347 755.145C503.258 755.306 502.211 755.68 501.266 756.245C500.321 756.81 499.497 757.556 498.84 758.44C498.183 759.324 497.707 760.328 497.439 761.396C497.171 762.464 497.115 763.574 497.276 764.663C497.436 765.752 497.81 766.799 498.375 767.744C498.941 768.689 499.686 769.513 500.57 770.17H500.61Z" fill="#6C63FF"/>
<path d="M533.36 655.54C533.36 660.16 524.98 673.54 524.98 673.54C524.98 673.54 516.61 660.13 516.61 655.54C516.685 653.369 517.6 651.312 519.163 649.802C520.725 648.293 522.812 647.449 524.985 647.449C527.157 647.449 529.245 648.293 530.807 649.802C532.37 651.312 533.285 653.369 533.36 655.54V655.54Z" fill="#6C63FF"/>
<path d="M547.15 681.15C544.63 685.04 530.32 691.74 530.32 691.74C530.32 691.74 530.58 675.93 533.09 672.05C534.297 670.185 536.194 668.876 538.366 668.411C540.538 667.946 542.805 668.363 544.67 669.57C546.534 670.776 547.843 672.674 548.308 674.846C548.773 677.018 548.357 679.285 547.15 681.15V681.15Z" fill="#6C63FF"/>
<path d="M546.54 724.92C542.41 727.01 526.67 725.57 526.67 725.57C526.67 725.57 534.87 712.05 539 709.97C539.982 709.475 541.051 709.178 542.147 709.096C543.244 709.015 544.346 709.15 545.39 709.494C546.434 709.838 547.4 710.384 548.233 711.102C549.066 711.819 549.75 712.693 550.245 713.675C550.74 714.657 551.037 715.726 551.119 716.823C551.2 717.919 551.065 719.021 550.721 720.065C550.377 721.109 549.831 722.075 549.114 722.908C548.396 723.741 547.522 724.425 546.54 724.92Z" fill="#6C63FF"/>
<path d="M538.63 757.94C534.91 760.69 519.15 761.94 519.15 761.94C519.15 761.94 524.95 747.23 528.67 744.48C530.456 743.154 532.696 742.592 534.897 742.917C537.097 743.243 539.079 744.429 540.405 746.215C541.731 748.002 542.293 750.241 541.968 752.442C541.642 754.643 540.456 756.624 538.67 757.95L538.63 757.94Z" fill="#6C63FF"/>
<path d="M512.74 692.64C516.05 695.86 531.51 699.2 531.51 699.2C531.51 699.2 527.72 683.85 524.41 680.63C523.625 679.849 522.693 679.231 521.668 678.812C520.642 678.394 519.544 678.183 518.437 678.192C517.329 678.201 516.235 678.429 515.216 678.864C514.198 679.299 513.276 679.932 512.504 680.726C511.732 681.52 511.125 682.459 510.718 683.489C510.312 684.519 510.114 685.62 510.136 686.727C510.158 687.834 510.399 688.926 510.846 689.94C511.293 690.953 511.937 691.867 512.74 692.63V692.64Z" fill="#6C63FF"/>
<path d="M503.97 731.39C508.1 733.48 523.84 732.04 523.84 732.04C523.84 732.04 515.64 718.52 511.51 716.44C510.525 715.945 509.452 715.649 508.353 715.568C507.253 715.488 506.149 715.625 505.102 715.971C504.056 716.317 503.088 716.866 502.254 717.587C501.419 718.307 500.735 719.185 500.24 720.17C499.745 721.155 499.449 722.228 499.368 723.327C499.288 724.427 499.424 725.531 499.771 726.578C500.117 727.624 500.666 728.592 501.387 729.427C502.107 730.261 502.985 730.945 503.97 731.44V731.39Z" fill="#6C63FF"/>
<path d="M500.61 770.17C504.33 772.92 520.09 774.17 520.09 774.17C520.09 774.17 514.29 759.46 510.57 756.71C509.686 756.053 508.682 755.577 507.614 755.309C506.546 755.04 505.436 754.985 504.347 755.145C503.258 755.306 502.211 755.68 501.266 756.245C500.321 756.81 499.497 757.556 498.84 758.44C498.183 759.324 497.707 760.328 497.439 761.396C497.171 762.464 497.115 763.574 497.276 764.663C497.436 765.752 497.81 766.799 498.375 767.744C498.941 768.689 499.686 769.513 500.57 770.17H500.61Z" fill="#6C63FF"/>
<path d="M497.22 791.15C497.22 791.15 510.75 788.46 514.36 784.88C517.97 781.3 534.21 775.03 536.01 779.5C537.81 783.97 560.37 799.21 545.01 801.9C529.65 804.59 508.93 805.48 504.42 803.69C499.91 801.9 497.22 791.15 497.22 791.15Z" fill="#A8A8A8"/>
<path opacity="0.2" d="M545.04 800.23C529.7 802.92 508.95 803.81 504.44 802.02C501 800.66 498.62 794.1 497.67 791.02L497.22 791.12C497.22 791.12 499.93 801.87 504.44 803.66C508.95 805.45 529.7 804.55 545.04 801.87C549.46 801.09 550.73 799.27 550.25 796.96C549.87 798.5 548.36 799.65 545.04 800.23Z" fill="black"/>
<defs>
<linearGradient id="paint0_linear" x1="890.86" y1="850.26" x2="890.86" y2="328.42" gradientUnits="userSpaceOnUse">
<stop stop-color="#808080" stop-opacity="0.25"/>
<stop offset="0.54" stop-color="#808080" stop-opacity="0.12"/>
<stop offset="1" stop-color="#808080" stop-opacity="0.1"/>
</linearGradient>
<linearGradient id="paint1_linear" x1="59259.9" y1="331089" x2="136919" y2="331089" gradientUnits="userSpaceOnUse">
<stop stop-color="#808080" stop-opacity="0.25"/>
<stop offset="0.54" stop-color="#808080" stop-opacity="0.12"/>
<stop offset="1" stop-color="#808080" stop-opacity="0.1"/>
</linearGradient>
<linearGradient id="paint2_linear" x1="703.217" y1="1157.84" x2="704.78" y2="1157.84" gradientUnits="userSpaceOnUse">
<stop stop-color="#808080" stop-opacity="0.25"/>
<stop offset="0.54" stop-color="#808080" stop-opacity="0.12"/>
<stop offset="1" stop-color="#808080" stop-opacity="0.1"/>
</linearGradient>
<linearGradient id="paint3_linear" x1="705.422" y1="1165.87" x2="706.985" y2="1165.87" gradientUnits="userSpaceOnUse">
<stop stop-color="#808080" stop-opacity="0.25"/>
<stop offset="0.54" stop-color="#808080" stop-opacity="0.12"/>
<stop offset="1" stop-color="#808080" stop-opacity="0.1"/>
</linearGradient>
<linearGradient id="paint4_linear" x1="705.422" y1="1157.84" x2="706.985" y2="1157.84" gradientUnits="userSpaceOnUse">
<stop stop-color="#808080" stop-opacity="0.25"/>
<stop offset="0.54" stop-color="#808080" stop-opacity="0.12"/>
<stop offset="1" stop-color="#808080" stop-opacity="0.1"/>
</linearGradient>
</defs>
</svg>
