<svg width="950" height="707" viewBox="0 0 950 707" fill="none" xmlns="http://www.w3.org/2000/svg">
<path d="M654.48 197.74H526.13V169.98C526.13 168.219 525.43 166.53 524.185 165.285C522.94 164.039 521.251 163.34 519.49 163.34H481.8V133.77C481.8 132.661 481.36 131.598 480.576 130.814C479.792 130.03 478.729 129.59 477.62 129.59H429.07C427.961 129.59 426.898 130.03 426.114 130.814C425.33 131.598 424.89 132.661 424.89 133.77V163.35H380.58C378.819 163.35 377.13 164.049 375.885 165.295C374.64 166.54 373.94 168.229 373.94 169.99V197.75H251.55C251.194 197.752 250.853 197.896 250.602 198.149C250.351 198.402 250.21 198.744 250.21 199.1V567.61C250.21 567.966 250.351 568.308 250.602 568.561C250.853 568.814 251.194 568.957 251.55 568.96H332.89C333.248 568.96 333.591 568.818 333.845 568.564C334.098 568.311 334.24 567.968 334.24 567.61V518.03C334.243 517.673 334.386 517.331 334.638 517.078C334.891 516.826 335.233 516.682 335.59 516.68H369.95C370.307 516.682 370.649 516.826 370.902 517.078C371.154 517.331 371.297 517.673 371.3 518.03V567.61C371.3 567.966 371.441 568.308 371.692 568.561C371.943 568.814 372.284 568.957 372.64 568.96H533.37C533.727 568.957 534.069 568.814 534.322 568.562C534.574 568.309 534.717 567.967 534.72 567.61V518.03C534.72 517.674 534.861 517.332 535.112 517.079C535.363 516.826 535.704 516.683 536.06 516.68H570.42C570.778 516.68 571.121 516.822 571.375 517.075C571.628 517.328 571.77 517.672 571.77 518.03V567.61C571.773 567.967 571.916 568.309 572.168 568.562C572.421 568.814 572.763 568.957 573.12 568.96H654.46C654.817 568.957 655.159 568.814 655.412 568.562C655.664 568.309 655.807 567.967 655.81 567.61V199.09C655.807 198.736 655.667 198.397 655.419 198.145C655.17 197.893 654.834 197.748 654.48 197.74ZM319.68 499.46C319.68 499.815 319.539 500.156 319.287 500.407C319.036 500.659 318.695 500.8 318.34 500.8H268.1C267.923 500.801 267.748 500.767 267.584 500.701C267.42 500.634 267.271 500.536 267.146 500.411C267.02 500.286 266.921 500.138 266.853 499.975C266.785 499.812 266.75 499.637 266.75 499.46V482.35C266.75 482.173 266.785 481.997 266.853 481.833C266.921 481.669 267.02 481.521 267.145 481.395C267.271 481.27 267.42 481.17 267.583 481.103C267.747 481.035 267.923 481 268.1 481H318.37C318.726 481.003 319.067 481.146 319.318 481.399C319.569 481.652 319.71 481.994 319.71 482.35L319.68 499.46ZM319.68 455.12C319.681 455.297 319.648 455.472 319.581 455.636C319.514 455.799 319.416 455.948 319.291 456.074C319.166 456.199 319.018 456.299 318.855 456.367C318.692 456.435 318.517 456.47 318.34 456.47H268.1C267.922 456.471 267.746 456.437 267.582 456.37C267.417 456.302 267.268 456.203 267.142 456.077C267.017 455.952 266.917 455.802 266.85 455.638C266.783 455.474 266.749 455.298 266.75 455.12V437.97C266.749 437.792 266.783 437.616 266.85 437.452C266.917 437.287 267.017 437.138 267.142 437.012C267.268 436.887 267.417 436.787 267.582 436.72C267.746 436.653 267.922 436.619 268.1 436.62H318.37C318.547 436.62 318.722 436.655 318.885 436.723C319.048 436.791 319.196 436.89 319.321 437.016C319.446 437.141 319.544 437.29 319.611 437.454C319.678 437.618 319.711 437.793 319.71 437.97L319.68 455.12ZM319.68 410.79C319.68 411.146 319.539 411.488 319.288 411.741C319.037 411.994 318.696 412.137 318.34 412.14H268.1C267.923 412.14 267.747 412.105 267.583 412.037C267.42 411.969 267.271 411.87 267.145 411.744C267.02 411.619 266.921 411.47 266.853 411.306C266.785 411.143 266.75 410.967 266.75 410.79V393.63C266.75 393.453 266.785 393.277 266.853 393.113C266.921 392.949 267.02 392.801 267.145 392.675C267.271 392.55 267.42 392.45 267.583 392.383C267.747 392.315 267.923 392.28 268.1 392.28H318.37C318.726 392.282 319.067 392.426 319.318 392.679C319.569 392.932 319.71 393.274 319.71 393.63L319.68 410.79ZM319.68 366.45C319.681 366.627 319.648 366.802 319.581 366.966C319.514 367.129 319.416 367.278 319.291 367.404C319.166 367.529 319.018 367.629 318.855 367.697C318.692 367.765 318.517 367.8 318.34 367.8H268.1C267.922 367.801 267.746 367.767 267.582 367.7C267.417 367.632 267.268 367.533 267.142 367.407C267.017 367.282 266.917 367.132 266.85 366.968C266.783 366.804 266.749 366.628 266.75 366.45V349.35C266.749 349.172 266.783 348.996 266.85 348.832C266.917 348.667 267.017 348.518 267.142 348.392C267.268 348.267 267.417 348.167 267.582 348.1C267.746 348.033 267.922 347.999 268.1 348H318.37C318.547 348 318.722 348.035 318.885 348.103C319.048 348.171 319.196 348.27 319.321 348.396C319.446 348.521 319.544 348.67 319.611 348.834C319.678 348.998 319.711 349.173 319.71 349.35L319.68 366.45ZM319.68 322.12C319.68 322.476 319.539 322.818 319.288 323.071C319.037 323.324 318.696 323.467 318.34 323.47H268.1C267.923 323.47 267.747 323.435 267.583 323.367C267.42 323.299 267.271 323.2 267.145 323.074C267.02 322.949 266.921 322.8 266.853 322.636C266.785 322.473 266.75 322.297 266.75 322.12V304.96C266.75 304.783 266.785 304.608 266.853 304.445C266.921 304.281 267.02 304.133 267.146 304.009C267.271 303.884 267.42 303.786 267.584 303.719C267.748 303.652 267.923 303.619 268.1 303.62H318.37C318.725 303.62 319.066 303.761 319.317 304.012C319.569 304.264 319.71 304.604 319.71 304.96L319.68 322.12ZM319.68 277.79C319.68 278.145 319.539 278.486 319.287 278.737C319.036 278.989 318.695 279.13 318.34 279.13H268.1C267.923 279.131 267.748 279.097 267.584 279.031C267.42 278.964 267.271 278.865 267.146 278.741C267.02 278.616 266.921 278.468 266.853 278.305C266.785 278.142 266.75 277.967 266.75 277.79V260.63C266.75 260.453 266.785 260.277 266.853 260.113C266.921 259.949 267.02 259.801 267.145 259.675C267.271 259.55 267.42 259.45 267.583 259.383C267.747 259.315 267.923 259.28 268.1 259.28H318.37C318.726 259.282 319.067 259.426 319.318 259.679C319.569 259.932 319.71 260.274 319.71 260.63L319.68 277.79ZM319.68 233.45C319.681 233.627 319.648 233.802 319.581 233.966C319.514 234.129 319.416 234.278 319.291 234.404C319.166 234.529 319.018 234.629 318.855 234.697C318.692 234.765 318.517 234.8 318.34 234.8H268.1C267.922 234.801 267.746 234.767 267.582 234.7C267.417 234.632 267.268 234.533 267.142 234.407C267.017 234.282 266.917 234.132 266.85 233.968C266.783 233.804 266.749 233.628 266.75 233.45V216.35C266.749 216.172 266.783 215.996 266.85 215.832C266.917 215.667 267.017 215.518 267.142 215.392C267.268 215.267 267.417 215.167 267.582 215.1C267.746 215.033 267.922 214.999 268.1 215H318.37C318.547 215 318.722 215.035 318.885 215.103C319.048 215.171 319.196 215.27 319.321 215.396C319.446 215.521 319.544 215.67 319.611 215.834C319.678 215.998 319.711 216.173 319.71 216.35L319.68 233.45ZM438.79 499.45C438.79 499.627 438.755 499.802 438.687 499.965C438.619 500.128 438.519 500.276 438.394 500.401C438.268 500.526 438.12 500.624 437.956 500.691C437.792 500.757 437.617 500.791 437.44 500.79H387.2C386.844 500.79 386.502 500.649 386.249 500.398C385.996 500.147 385.853 499.806 385.85 499.45V482.35C385.853 481.993 385.996 481.651 386.248 481.398C386.501 481.146 386.843 481.002 387.2 481H437.44C437.617 481 437.793 481.035 437.957 481.103C438.12 481.17 438.269 481.27 438.395 481.395C438.52 481.521 438.619 481.669 438.687 481.833C438.755 481.997 438.79 482.173 438.79 482.35V499.45ZM438.79 455.11C438.791 455.288 438.757 455.464 438.69 455.628C438.623 455.792 438.523 455.942 438.398 456.067C438.272 456.193 438.123 456.292 437.958 456.36C437.794 456.427 437.618 456.461 437.44 456.46H387.2C386.842 456.46 386.499 456.318 386.245 456.064C385.992 455.811 385.85 455.468 385.85 455.11V437.97C385.85 437.612 385.992 437.268 386.245 437.015C386.499 436.762 386.842 436.62 387.2 436.62H437.44C437.618 436.619 437.794 436.653 437.958 436.72C438.123 436.787 438.272 436.887 438.398 437.012C438.523 437.138 438.623 437.287 438.69 437.452C438.757 437.616 438.791 437.792 438.79 437.97V455.11ZM438.79 410.78C438.79 410.957 438.755 411.133 438.687 411.296C438.619 411.46 438.52 411.609 438.395 411.734C438.269 411.86 438.12 411.959 437.957 412.027C437.793 412.095 437.617 412.13 437.44 412.13H387.2C386.843 412.127 386.501 411.984 386.248 411.732C385.996 411.479 385.853 411.137 385.85 410.78V393.63C385.853 393.273 385.996 392.931 386.248 392.678C386.501 392.426 386.843 392.282 387.2 392.28H437.44C437.617 392.28 437.793 392.315 437.957 392.383C438.12 392.45 438.269 392.55 438.395 392.675C438.52 392.801 438.619 392.949 438.687 393.113C438.755 393.277 438.79 393.453 438.79 393.63V410.78ZM438.79 366.44C438.791 366.617 438.757 366.794 438.69 366.958C438.623 367.122 438.523 367.272 438.398 367.397C438.272 367.523 438.123 367.622 437.958 367.69C437.794 367.757 437.618 367.791 437.44 367.79H387.2C386.842 367.79 386.499 367.648 386.245 367.394C385.992 367.141 385.85 366.798 385.85 366.44V349.35C385.85 348.992 385.992 348.648 386.245 348.395C386.499 348.142 386.842 348 387.2 348H437.44C437.618 347.999 437.794 348.033 437.958 348.1C438.123 348.167 438.272 348.267 438.398 348.392C438.523 348.518 438.623 348.667 438.69 348.832C438.757 348.996 438.791 349.172 438.79 349.35V366.44ZM438.79 322.11C438.79 322.287 438.755 322.463 438.687 322.626C438.619 322.79 438.52 322.939 438.395 323.064C438.269 323.19 438.12 323.289 437.957 323.357C437.793 323.425 437.617 323.46 437.44 323.46H387.2C386.843 323.457 386.501 323.314 386.248 323.062C385.996 322.809 385.853 322.467 385.85 322.11V304.96C385.853 304.604 385.996 304.263 386.249 304.012C386.502 303.761 386.844 303.62 387.2 303.62H437.44C437.617 303.619 437.792 303.652 437.956 303.719C438.12 303.786 438.268 303.884 438.394 304.009C438.519 304.133 438.619 304.281 438.687 304.445C438.755 304.608 438.79 304.783 438.79 304.96V322.11ZM438.79 277.78C438.79 277.957 438.755 278.132 438.687 278.295C438.619 278.458 438.519 278.606 438.394 278.731C438.268 278.855 438.12 278.954 437.956 279.021C437.792 279.087 437.617 279.121 437.44 279.12H387.2C386.844 279.12 386.502 278.979 386.249 278.728C385.996 278.477 385.853 278.136 385.85 277.78V260.63C385.853 260.273 385.996 259.931 386.248 259.678C386.501 259.426 386.843 259.282 387.2 259.28H437.44C437.617 259.28 437.793 259.315 437.957 259.383C438.12 259.45 438.269 259.55 438.395 259.675C438.52 259.801 438.619 259.949 438.687 260.113C438.755 260.277 438.79 260.453 438.79 260.63V277.78ZM438.79 233.44C438.791 233.617 438.757 233.794 438.69 233.958C438.623 234.122 438.523 234.272 438.398 234.397C438.272 234.523 438.123 234.622 437.958 234.69C437.794 234.757 437.618 234.791 437.44 234.79H387.2C386.842 234.79 386.499 234.648 386.245 234.394C385.992 234.141 385.85 233.798 385.85 233.44V216.35C385.85 215.992 385.992 215.648 386.245 215.395C386.499 215.142 386.842 215 387.2 215H437.44C437.618 214.999 437.794 215.033 437.958 215.1C438.123 215.167 438.272 215.267 438.398 215.392C438.523 215.518 438.623 215.667 438.69 215.832C438.757 215.996 438.791 216.172 438.79 216.35V233.44ZM520.18 499.44C520.18 499.617 520.145 499.792 520.077 499.955C520.009 500.118 519.909 500.266 519.784 500.391C519.658 500.515 519.51 500.614 519.346 500.681C519.182 500.747 519.007 500.781 518.83 500.78H468.59C468.234 500.78 467.892 500.639 467.639 500.388C467.386 500.137 467.243 499.796 467.24 499.44V482.35C467.243 481.993 467.386 481.651 467.638 481.398C467.891 481.146 468.233 481.002 468.59 481H518.83C519.188 481 519.531 481.142 519.785 481.395C520.038 481.648 520.18 481.992 520.18 482.35V499.44ZM520.18 455.1C520.181 455.278 520.147 455.454 520.08 455.618C520.013 455.782 519.913 455.932 519.788 456.057C519.662 456.183 519.513 456.282 519.348 456.35C519.184 456.417 519.008 456.451 518.83 456.45H468.59C468.232 456.45 467.889 456.308 467.635 456.054C467.382 455.801 467.24 455.458 467.24 455.1V437.97C467.24 437.612 467.382 437.268 467.635 437.015C467.889 436.762 468.232 436.62 468.59 436.62H518.83C519.008 436.619 519.184 436.653 519.348 436.72C519.513 436.787 519.662 436.887 519.788 437.012C519.913 437.138 520.013 437.287 520.08 437.452C520.147 437.616 520.181 437.792 520.18 437.97V455.1ZM520.18 410.77C520.18 411.128 520.038 411.471 519.785 411.724C519.531 411.978 519.188 412.12 518.83 412.12H468.59C468.233 412.117 467.891 411.974 467.638 411.722C467.386 411.469 467.243 411.127 467.24 410.77V393.63C467.243 393.273 467.386 392.931 467.638 392.678C467.891 392.426 468.233 392.282 468.59 392.28H518.83C519.188 392.28 519.531 392.422 519.785 392.675C520.038 392.928 520.18 393.272 520.18 393.63V410.77ZM520.18 366.43C520.181 366.607 520.147 366.784 520.08 366.948C520.013 367.112 519.913 367.262 519.788 367.387C519.662 367.513 519.513 367.612 519.348 367.68C519.184 367.747 519.008 367.781 518.83 367.78H468.59C468.232 367.78 467.889 367.638 467.635 367.384C467.382 367.131 467.24 366.788 467.24 366.43V349.35C467.24 348.992 467.382 348.648 467.635 348.395C467.889 348.142 468.232 348 468.59 348H518.83C519.008 347.999 519.184 348.033 519.348 348.1C519.513 348.167 519.662 348.267 519.788 348.392C519.913 348.518 520.013 348.667 520.08 348.832C520.147 348.996 520.181 349.172 520.18 349.35V366.43ZM520.18 322.1C520.18 322.458 520.038 322.801 519.785 323.054C519.531 323.308 519.188 323.45 518.83 323.45H468.59C468.233 323.447 467.891 323.304 467.638 323.052C467.386 322.799 467.243 322.457 467.24 322.1V304.96C467.243 304.604 467.386 304.263 467.639 304.012C467.892 303.761 468.234 303.62 468.59 303.62H518.83C519.007 303.619 519.182 303.652 519.346 303.719C519.51 303.786 519.658 303.884 519.784 304.009C519.909 304.133 520.009 304.281 520.077 304.445C520.145 304.608 520.18 304.783 520.18 304.96V322.1ZM520.18 277.77C520.18 277.947 520.145 278.122 520.077 278.285C520.009 278.448 519.909 278.596 519.784 278.721C519.658 278.845 519.51 278.944 519.346 279.011C519.182 279.077 519.007 279.111 518.83 279.11H468.59C468.234 279.11 467.892 278.969 467.639 278.718C467.386 278.467 467.243 278.126 467.24 277.77V260.63C467.243 260.273 467.386 259.931 467.638 259.678C467.891 259.426 468.233 259.282 468.59 259.28H518.83C519.188 259.28 519.531 259.422 519.785 259.675C520.038 259.928 520.18 260.272 520.18 260.63V277.77ZM520.18 233.43C520.181 233.607 520.147 233.784 520.08 233.948C520.013 234.112 519.913 234.262 519.788 234.387C519.662 234.513 519.513 234.612 519.348 234.68C519.184 234.747 519.008 234.781 518.83 234.78H468.59C468.232 234.78 467.889 234.638 467.635 234.384C467.382 234.131 467.24 233.788 467.24 233.43V216.35C467.24 215.992 467.382 215.648 467.635 215.395C467.889 215.142 468.232 215 468.59 215H518.83C519.008 214.999 519.184 215.033 519.348 215.1C519.513 215.167 519.662 215.267 519.788 215.392C519.913 215.518 520.013 215.667 520.08 215.832C520.147 215.996 520.181 216.172 520.18 216.35V233.43ZM639.29 499.43C639.287 499.786 639.144 500.127 638.891 500.378C638.638 500.629 638.296 500.77 637.94 500.77H587.7C587.523 500.771 587.348 500.737 587.184 500.671C587.02 500.604 586.871 500.505 586.746 500.381C586.62 500.256 586.521 500.108 586.453 499.945C586.385 499.782 586.35 499.607 586.35 499.43V482.35C586.35 481.992 586.492 481.648 586.745 481.395C586.999 481.142 587.342 481 587.7 481H637.94C638.297 481.002 638.639 481.146 638.892 481.398C639.144 481.651 639.287 481.993 639.29 482.35V499.43ZM639.29 455.09C639.29 455.448 639.148 455.791 638.895 456.044C638.641 456.298 638.298 456.44 637.94 456.44H587.7C587.522 456.441 587.346 456.407 587.182 456.34C587.017 456.272 586.868 456.173 586.742 456.047C586.617 455.922 586.517 455.772 586.45 455.608C586.383 455.444 586.349 455.267 586.35 455.09V437.97C586.349 437.792 586.383 437.616 586.45 437.452C586.517 437.287 586.617 437.138 586.742 437.012C586.868 436.887 587.017 436.787 587.182 436.72C587.346 436.653 587.522 436.619 587.7 436.62H637.94C638.298 436.62 638.641 436.762 638.895 437.015C639.148 437.268 639.29 437.612 639.29 437.97V455.09ZM639.29 410.76C639.287 411.117 639.144 411.459 638.892 411.712C638.639 411.964 638.297 412.107 637.94 412.11H587.7C587.342 412.11 586.999 411.968 586.745 411.714C586.492 411.461 586.35 411.118 586.35 410.76V393.63C586.35 393.272 586.492 392.928 586.745 392.675C586.999 392.422 587.342 392.28 587.7 392.28H637.94C638.297 392.282 638.639 392.426 638.892 392.678C639.144 392.931 639.287 393.273 639.29 393.63V410.76ZM639.29 366.42C639.29 366.778 639.148 367.121 638.895 367.374C638.641 367.628 638.298 367.77 637.94 367.77H587.7C587.35 367.767 587.014 367.628 586.766 367.381C586.517 367.134 586.375 366.8 586.37 366.45V349.35C586.369 349.172 586.403 348.996 586.47 348.832C586.537 348.667 586.637 348.518 586.762 348.392C586.888 348.267 587.037 348.167 587.202 348.1C587.366 348.033 587.542 347.999 587.72 348H637.96C638.318 348 638.661 348.142 638.915 348.395C639.168 348.648 639.31 348.992 639.31 349.35L639.29 366.42ZM639.29 322.09C639.287 322.447 639.144 322.789 638.892 323.042C638.639 323.294 638.297 323.437 637.94 323.44H587.7C587.342 323.44 586.999 323.298 586.745 323.044C586.492 322.791 586.35 322.448 586.35 322.09V304.96C586.35 304.783 586.385 304.608 586.453 304.445C586.521 304.281 586.62 304.133 586.746 304.009C586.871 303.884 587.02 303.786 587.184 303.719C587.348 303.652 587.523 303.619 587.7 303.62H637.94C638.296 303.62 638.638 303.761 638.891 304.012C639.144 304.263 639.287 304.604 639.29 304.96V322.09ZM639.29 277.76C639.287 278.116 639.144 278.457 638.891 278.708C638.638 278.959 638.296 279.1 637.94 279.1H587.7C587.523 279.101 587.348 279.067 587.184 279.001C587.02 278.934 586.871 278.835 586.746 278.711C586.62 278.586 586.521 278.438 586.453 278.275C586.385 278.112 586.35 277.937 586.35 277.76V260.63C586.35 260.272 586.492 259.928 586.745 259.675C586.999 259.422 587.342 259.28 587.7 259.28H637.94C638.297 259.282 638.639 259.426 638.892 259.678C639.144 259.931 639.287 260.273 639.29 260.63V277.76ZM639.29 233.42C639.29 233.597 639.255 233.773 639.187 233.936C639.119 234.1 639.02 234.249 638.895 234.374C638.769 234.5 638.62 234.599 638.457 234.667C638.293 234.735 638.117 234.77 637.94 234.77H587.7C587.35 234.767 587.014 234.628 586.766 234.381C586.517 234.134 586.375 233.8 586.37 233.45V216.35C586.369 216.172 586.403 215.996 586.47 215.832C586.537 215.667 586.637 215.518 586.762 215.392C586.888 215.267 587.037 215.167 587.202 215.1C587.366 215.033 587.542 214.999 587.72 215H637.96C638.318 215 638.661 215.142 638.915 215.395C639.168 215.648 639.31 215.992 639.31 216.35L639.29 233.42Z" fill="#F2F2F2"/>
<path d="M267.15 44.2403L251.63 54.0803L261.05 36.9403C258.383 34.8121 255.082 33.6334 251.67 33.5904H251.42C250.342 33.6065 249.264 33.5262 248.2 33.3503L242.94 36.6804L245.19 32.5803C241.46 31.2797 238.238 28.8287 235.99 25.5804L226.58 31.5803L232.52 20.7703C227.02 14.1603 219.6 10.1104 211.43 10.1104C201.64 10.1104 192.92 15.9304 187.29 25.0004C185.625 27.7237 183.266 29.9554 180.454 31.4667C177.643 32.9779 174.48 33.7143 171.29 33.6003H170.77C159.96 33.6003 151.2 45.8603 151.2 60.9703C151.2 76.0803 160 88.3503 170.81 88.3503C173.185 88.338 175.521 87.7513 177.62 86.6403C181.299 84.8503 185.324 83.882 189.414 83.8025C193.505 83.7231 197.564 84.5345 201.31 86.1804C204.478 87.5976 207.909 88.3301 211.38 88.3301C214.851 88.3301 218.282 87.5976 221.45 86.1804C225.166 84.5688 229.185 83.7758 233.235 83.8551C237.285 83.9345 241.27 84.8844 244.92 86.6403C247.001 87.742 249.316 88.3284 251.67 88.3503C262.48 88.3503 271.24 76.0903 271.24 60.9703C271.304 55.1386 269.898 49.3847 267.15 44.2403Z" fill="#F2F2F2"/>
<path opacity="0.03" d="M237.9 84.2903C232.253 83.2151 226.414 83.8488 221.13 86.1103C217.963 87.5242 214.533 88.2549 211.065 88.2549C207.597 88.2549 204.167 87.5242 201 86.1103C197.253 84.469 193.194 83.6602 189.104 83.7396C185.015 83.819 180.99 84.7848 177.31 86.5703C175.21 87.687 172.869 88.274 170.49 88.2803C160.89 88.2803 152.9 78.6103 151.24 65.8503C153.159 64.4492 154.789 62.6902 156.04 60.6703C161.67 51.6003 170.39 45.7803 180.18 45.7803C189.97 45.7803 198.58 51.5303 204.18 60.5103C205.857 63.2224 208.207 65.4545 211.002 66.9896C213.797 68.5246 216.942 69.3103 220.13 69.2703H220.38C228.06 69.2203 234.68 75.3503 237.9 84.2903Z" fill="black"/>
<path d="M814.13 17.03L806.37 21.94L811.07 13.39C809.739 12.3294 808.092 11.7419 806.39 11.72H806.27C805.731 11.7306 805.192 11.6904 804.66 11.6L802.04 13.27L803.16 11.27C801.304 10.6189 799.698 9.40174 798.57 7.79L793.88 10.79L796.88 5.4C795.642 3.77321 794.055 2.44397 792.237 1.50963C790.418 0.575284 788.414 0.0594882 786.37 0C781.49 0 777.14 2.91 774.37 7.43C773.536 8.78984 772.356 9.90369 770.951 10.6575C769.545 11.4113 767.964 11.778 766.37 11.72H766.11C760.72 11.72 756.35 17.83 756.35 25.37C756.35 32.91 760.72 39.02 766.11 39.02C767.296 39.0162 768.462 38.7245 769.51 38.17C771.345 37.2786 773.351 36.7964 775.39 36.7566C777.429 36.7169 779.452 37.1207 781.32 37.94C782.901 38.6457 784.614 39.0104 786.345 39.0104C788.077 39.0104 789.789 38.6457 791.37 37.94C793.225 37.1376 795.23 36.7429 797.25 36.7826C799.27 36.8223 801.259 37.2954 803.08 38.17C804.117 38.7124 805.27 38.9971 806.44 39C811.83 39 816.2 32.89 816.2 25.35C816.216 22.4473 815.504 19.587 814.13 17.03V17.03Z" fill="#F2F2F2"/>
<path opacity="0.03" d="M799.54 36.9995C796.721 36.4696 793.809 36.7862 791.17 37.9095C789.596 38.6096 787.893 38.9708 786.17 38.9695C784.447 38.9607 782.744 38.5928 781.17 37.8895C779.301 37.07 777.276 36.6662 775.235 36.7059C773.194 36.7456 771.186 37.2279 769.35 38.1195C768.303 38.6751 767.136 38.9669 765.95 38.9695C761.16 38.9695 757.18 34.1495 756.35 27.7795C757.308 27.0811 758.123 26.2052 758.75 25.1995C761.55 20.6795 765.9 17.7695 770.75 17.7695C775.6 17.7695 779.93 20.6395 782.75 25.1195C783.591 26.4788 784.77 27.5963 786.172 28.3624C787.575 29.1285 789.152 29.5169 790.75 29.4895H790.88C794.63 29.4895 797.93 32.5495 799.54 36.9995Z" fill="black"/>
<path d="M619.82 106.96L610.72 112.73L616.24 102.73C614.681 101.469 612.745 100.766 610.74 100.73H610.59C609.957 100.739 609.325 100.692 608.7 100.59L605.62 102.59L606.94 100.18C604.754 99.4189 602.865 97.9877 601.54 96.0902L596.02 99.5902L599.51 93.2502C598.042 91.3539 596.17 89.8082 594.031 88.7254C591.891 87.6426 589.537 87.0498 587.14 86.9902C581.4 86.9902 576.28 90.4102 572.98 95.7302C572 97.3155 570.618 98.6132 568.974 99.4913C567.33 100.37 565.482 100.797 563.62 100.73H563.31C556.97 100.73 551.84 107.92 551.84 116.73C551.84 125.54 556.97 132.78 563.31 132.78C564.705 132.778 566.078 132.434 567.31 131.78C569.467 130.732 571.827 130.165 574.225 130.118C576.623 130.072 579.003 130.547 581.2 131.51C583.059 132.338 585.07 132.765 587.105 132.765C589.139 132.765 591.151 132.338 593.01 131.51C595.19 130.566 597.548 130.101 599.924 130.148C602.3 130.194 604.638 130.751 606.78 131.78C608.014 132.43 609.386 132.773 610.78 132.78C617.12 132.78 622.26 125.6 622.26 116.73C622.276 113.321 621.437 109.962 619.82 106.96V106.96Z" fill="#F2F2F2"/>
<path opacity="0.03" d="M602.67 130.45C599.356 129.823 595.931 130.195 592.83 131.52C590.971 132.348 588.959 132.775 586.925 132.775C584.89 132.775 582.879 132.348 581.02 131.52C578.823 130.556 576.443 130.082 574.045 130.128C571.647 130.175 569.287 130.742 567.13 131.79C565.898 132.443 564.525 132.787 563.13 132.79C557.5 132.79 552.81 127.12 551.84 119.64C552.961 118.83 553.915 117.812 554.65 116.64C557.95 111.32 563.07 107.91 568.81 107.91C574.55 107.91 579.61 111.28 582.91 116.54C583.891 118.132 585.269 119.442 586.907 120.343C588.546 121.244 590.39 121.704 592.26 121.68H592.37C596.89 121.61 600.78 125.21 602.67 130.45Z" fill="black"/>
<path d="M947.25 569.2C947.25 570.92 947.25 572.64 947.14 574.34C946.884 580.957 946.088 587.543 944.76 594.03C938.19 626.14 919.22 651.1 895.39 658.47C890.65 659.947 885.714 660.698 880.75 660.7C844.02 660.7 814.25 619.7 814.25 569.2C814.25 518.7 844.02 477.7 880.75 477.7C915.2 477.7 943.54 513.76 946.91 559.95C947.14 562.99 947.25 566.08 947.25 569.2Z" fill="#36334A"/>
<path opacity="0.1" d="M947.14 574.35C946.884 580.967 946.088 587.552 944.76 594.04C938.19 626.15 919.22 651.11 895.39 658.48C876.94 649.99 863.25 618.17 863.25 580.21C863.25 535.75 882.05 499.71 905.25 499.71C924.72 499.71 941.1 525.13 945.85 559.62C946.51 564.35 946.94 569.29 947.14 574.35Z" fill="black"/>
<path d="M613.25 366.7C613.25 366.7 793.25 329.7 888.25 363.7C888.25 363.7 902.25 370.7 888.25 382.7C888.25 382.7 901.49 396.7 878.37 401.7L786.52 407.35L613.25 389.7V366.7Z" fill="#3F3D56"/>
<path opacity="0.1" d="M644.75 371.35C644.75 371.35 798.86 339.67 880.2 368.78C880.2 368.78 892.2 374.78 880.2 385.05C880.2 385.05 891.53 397.05 871.74 401.32L793.1 406.15L644.75 391.06V371.35Z" fill="black"/>
<path d="M820.25 426.7L808.25 402.7C808.25 402.7 813.51 378.42 770.75 371.28C768.38 360.69 757.64 352.7 744.75 352.7C732.17 352.7 721.65 360.3 718.93 370.5C712.79 371.03 706.25 371.75 699.25 372.7L689.47 425.14L688.25 422.7C688.25 422.7 694.46 394.02 638.49 389.83C641.541 386.132 643.222 381.494 643.25 376.7C643.25 363.99 631.38 353.7 616.75 353.7C602.12 353.7 590.25 363.99 590.25 376.7C590.288 381.922 592.271 386.941 595.81 390.78C590.577 391.28 585.057 391.92 579.25 392.7L568.25 451.7L619.25 458.7L700.25 446.7L693.08 432.35L739.25 438.69L820.25 426.7Z" fill="#6C63FF"/>
<path opacity="0.2" d="M820.25 426.7L808.25 402.7C808.25 402.7 813.51 378.42 770.75 371.28C768.38 360.69 757.64 352.7 744.75 352.7C732.17 352.7 721.65 360.3 718.93 370.5C712.79 371.03 706.25 371.75 699.25 372.7L689.47 425.14L688.25 422.7C688.25 422.7 694.46 394.02 638.49 389.83C641.541 386.132 643.222 381.494 643.25 376.7C643.25 363.99 631.38 353.7 616.75 353.7C602.12 353.7 590.25 363.99 590.25 376.7C590.288 381.922 592.271 386.941 595.81 390.78C590.577 391.28 585.057 391.92 579.25 392.7L568.25 451.7L619.25 458.7L700.25 446.7L693.08 432.35L739.25 438.69L820.25 426.7Z" fill="black"/>
<path d="M648.23 373.58C648.23 373.58 640.23 328.7 677.23 327.7C714.23 326.7 702.23 392.7 702.23 392.7C702.23 392.7 730.23 398.7 732.23 409.7C734.23 420.7 635.23 423.7 635.23 423.7L648.23 373.58Z" fill="#6C63FF"/>
<path d="M583.25 610.7C583.25 663.7 543.85 706.7 495.25 706.7C446.65 706.7 407.25 663.7 407.25 610.7C407.25 557.7 447.14 506.2 495.75 506.2C544.36 506.2 583.25 557.68 583.25 610.7Z" fill="#36334A"/>
<path opacity="0.1" d="M495.25 695.69C533.91 695.69 565.25 659.429 565.25 614.7C565.25 569.97 533.91 533.71 495.25 533.71C456.59 533.71 425.25 569.97 425.25 614.7C425.25 659.429 456.59 695.69 495.25 695.69Z" fill="black"/>
<path d="M108.25 697.69C156.851 697.69 196.25 654.71 196.25 601.69C196.25 548.671 156.851 505.69 108.25 505.69C59.6489 505.69 20.25 548.671 20.25 601.69C20.25 654.71 59.6489 697.69 108.25 697.69Z" fill="#36334A"/>
<path d="M258.25 372.7C258.25 372.7 217.25 374.7 219.25 396.7C221.25 418.7 254.25 402.7 254.25 402.7L258.25 372.7Z" fill="#36334A"/>
<path d="M599.37 409.35L616.25 296.7C616.25 296.7 620.25 282.7 566.25 282.7C566.25 282.7 393.25 271.7 349.25 289.7C349.25 289.7 298.25 308.7 227.25 406.7C227.25 406.7 592.37 415.35 599.37 409.35Z" fill="#3F3D56"/>
<path d="M593.25 291.7L562.25 414.7L542.81 414.23L450.81 411.99L245.62 406.99C245.05 397.27 342.22 296.7 342.22 296.7L593.25 291.7Z" fill="#36334A"/>
<path opacity="0.2" d="M450.84 411.99L459.22 379.59C459.22 379.59 451.22 334.7 488.22 333.7C525.22 332.7 513.22 398.7 513.22 398.7C513.22 398.7 538.72 404.17 542.78 414.23L450.84 411.99Z" fill="#6C63FF"/>
<path d="M947.75 562.2C941.75 504.2 904.25 491.7 904.25 491.7C868.25 489.7 844.25 626.7 844.25 626.7L567.25 651.7C567.25 651.7 576.75 535.2 509.75 516.2C442.75 497.2 425.25 633.7 422.25 652.7C419.25 671.7 18.25 650.7 7.25 642.7C-3.75 634.7 0.25 557.7 3.25 551.7C6.25 545.7 14.25 518.7 14.25 518.7C14.25 512.26 17.33 504.12 19.89 498.47C21.69 494.47 23.25 491.7 23.25 491.7C31.94 442.42 77.06 430.49 80.09 429.7H80.25C92.25 417.7 203.25 409.7 203.25 409.7L245.25 401.7L586.72 408.41L601.25 408.7L774.85 400.35L892.25 394.7C919.25 394.7 933.25 462.7 933.25 462.7C958.25 522.7 947.75 562.2 947.75 562.2Z" fill="#3F3D56"/>
<path opacity="0.1" d="M384.796 503.306C411.172 492.693 427.168 470.702 420.523 454.188C413.878 437.675 387.109 432.893 360.733 443.507C334.356 454.12 318.361 476.111 325.006 492.625C331.651 509.138 358.42 513.92 384.796 503.306Z" fill="black"/>
<path d="M382.798 499.303C409.174 488.689 425.169 466.698 418.524 450.184C411.879 433.671 385.11 428.889 358.734 439.503C332.358 450.116 316.362 472.107 323.007 488.621C329.652 505.134 356.421 509.916 382.798 499.303Z" fill="#F2F2F2"/>
<path opacity="0.1" d="M82.09 431.74C81.58 442.74 76.65 456.62 67.78 469.99C53.51 491.51 33.94 504.18 21.89 500.47C23.69 496.47 25.25 493.7 25.25 493.7C33.94 444.42 79.06 432.49 82.09 431.74Z" fill="black"/>
<path d="M79.09 429.74C78.58 440.74 73.65 454.62 64.78 467.99C50.51 489.51 30.94 502.18 18.89 498.47C20.69 494.47 22.25 491.7 22.25 491.7C30.94 442.42 76.06 430.49 79.09 429.74Z" fill="#F2F2F2"/>
<path d="M219.25 459.69H140.25L136.25 448.69H232.25L219.25 459.69Z" fill="#36334A"/>
<path d="M201.25 540.69H71.25V578.69H201.25V540.69Z" fill="#36334A"/>
<path opacity="0.1" d="M341.25 615.69C351.191 615.69 359.25 607.632 359.25 597.69C359.25 587.749 351.191 579.69 341.25 579.69C331.309 579.69 323.25 587.749 323.25 597.69C323.25 607.632 331.309 615.69 341.25 615.69Z" fill="black"/>
<path d="M339.25 612.69C349.191 612.69 357.25 604.632 357.25 594.69C357.25 584.749 349.191 576.69 339.25 576.69C329.309 576.69 321.25 584.749 321.25 594.69C321.25 604.632 329.309 612.69 339.25 612.69Z" fill="#F2F2F2"/>
<path opacity="0.1" d="M14.25 602.69C19.2206 602.69 23.25 594.184 23.25 583.69C23.25 573.197 19.2206 564.69 14.25 564.69C9.27944 564.69 5.25 573.197 5.25 583.69C5.25 594.184 9.27944 602.69 14.25 602.69Z" fill="black"/>
<path d="M11.25 601.69C16.2206 601.69 20.25 593.184 20.25 582.69C20.25 572.197 16.2206 563.69 11.25 563.69C6.27944 563.69 2.25 572.197 2.25 582.69C2.25 593.184 6.27944 601.69 11.25 601.69Z" fill="#F2F2F2"/>
<path d="M804.25 502.7C793.25 536.7 792.25 589.7 792.25 589.7L788.25 603.7L593.25 625.7C593.25 625.7 594.25 527.7 597.25 481.7C599.36 449.25 591.53 421.78 586.72 408.41L601.25 408.7L774.85 400.35C803.85 420.68 814.12 472.17 804.25 502.7Z" fill="#36334A"/>
<path d="M759.79 441.4C759.107 441.446 758.442 441.633 757.836 441.951C757.23 442.269 756.697 442.71 756.271 443.245C755.846 443.781 755.537 444.4 755.365 445.062C755.192 445.724 755.16 446.415 755.27 447.09C755.365 447.655 755.597 448.189 755.946 448.644C756.294 449.099 756.749 449.462 757.27 449.7C760.5 451.31 782 447.7 790.15 446.26C791.357 446.065 792.465 445.475 793.301 444.583C794.136 443.691 794.653 442.547 794.77 441.33C794.87 439.91 794.35 438.7 792.27 438.7L759.79 441.4Z" fill="#F2F2F2"/>
<path d="M586.25 404.7C586.25 404.7 591.25 426.7 615.25 419.7L623.25 388.7L607.25 379.7L586.25 404.7Z" fill="#36334A"/>
<path d="M615.64 360.03C626.64 353.51 644.09 347.81 661.35 361.5C664.943 364.336 667.477 368.299 668.545 372.75C669.613 377.201 669.154 381.882 667.24 386.04C661.59 398.27 648.18 411.54 616.87 395.65C613.797 394.09 611.173 391.77 609.25 388.91L609.09 388.67C607.575 386.379 606.541 383.804 606.05 381.101C605.559 378.399 605.622 375.625 606.234 372.948C606.846 370.27 607.996 367.745 609.613 365.524C611.229 363.304 613.28 361.435 615.64 360.03V360.03Z" fill="#36334A"/>
<path d="M495.75 630.19C506.796 630.19 515.75 621.236 515.75 610.19C515.75 599.145 506.796 590.19 495.75 590.19C484.704 590.19 475.75 599.145 475.75 610.19C475.75 621.236 484.704 630.19 495.75 630.19Z" fill="#F2F2F2"/>
<path d="M908.75 594.19C914.825 594.19 919.75 585.236 919.75 574.19C919.75 563.145 914.825 554.19 908.75 554.19C902.675 554.19 897.75 563.145 897.75 574.19C897.75 585.236 902.675 594.19 908.75 594.19Z" fill="#F2F2F2"/>
<path d="M496.25 548.69H494.25C487.623 548.69 482.25 554.063 482.25 560.69V571.69C482.25 578.318 487.623 583.69 494.25 583.69H496.25C502.877 583.69 508.25 578.318 508.25 571.69V560.69C508.25 554.063 502.877 548.69 496.25 548.69Z" fill="#36334A"/>
<path d="M908.75 510.19C909.669 510.19 910.579 510.371 911.429 510.723C912.278 511.075 913.05 511.591 913.7 512.241C914.35 512.891 914.865 513.662 915.217 514.512C915.569 515.361 915.75 516.271 915.75 517.19V533.19C915.75 536.373 914.486 539.425 912.235 541.676C909.985 543.926 906.933 545.19 903.75 545.19C901.893 545.19 900.113 544.453 898.8 543.14C897.487 541.827 896.75 540.047 896.75 538.19V522.19C896.75 519.008 898.014 515.956 900.265 513.705C902.515 511.455 905.567 510.19 908.75 510.19V510.19Z" fill="#36334A"/>
<path d="M908.75 638.2C905.567 638.2 902.515 636.936 900.265 634.685C898.014 632.435 896.75 629.383 896.75 626.2V615.2C896.75 612.018 898.014 608.965 900.265 606.715C902.515 604.465 905.567 603.2 908.75 603.2V603.2C915.35 603.2 914.75 608.6 914.75 615.2V626.2C914.74 632.8 915.37 638.2 908.75 638.2Z" fill="#36334A"/>
<path d="M878.75 556.19C881.933 556.19 884.985 557.455 887.235 559.705C889.486 561.956 890.75 565.008 890.75 568.19V583.19C890.75 585.312 889.907 587.347 888.407 588.847C886.907 590.348 884.872 591.19 882.75 591.19C879.567 591.19 876.515 589.926 874.265 587.676C872.014 585.425 870.75 582.373 870.75 579.19V564.19C870.75 562.069 871.593 560.034 873.093 558.534C874.593 557.033 876.628 556.19 878.75 556.19Z" fill="#36334A"/>
<path d="M947.25 569.2C947.25 570.92 947.25 572.64 947.14 574.34C946.884 580.957 946.088 587.543 944.76 594.03C944.099 594.142 943.43 594.199 942.76 594.2C939.577 594.2 936.525 592.936 934.275 590.686C932.024 588.435 930.76 585.383 930.76 582.2V571.2C930.76 568.018 932.024 564.965 934.275 562.715C936.525 560.465 939.577 559.2 942.76 559.2C943.807 559.198 944.85 559.336 945.86 559.61C946.22 559.71 946.58 559.82 946.92 559.95C947.14 562.99 947.25 566.08 947.25 569.2Z" fill="#36334A"/>
<path d="M546.75 591.19H544.75C538.123 591.19 532.75 596.563 532.75 603.19V614.19C532.75 620.818 538.123 626.19 544.75 626.19H546.75C553.377 626.19 558.75 620.818 558.75 614.19V603.19C558.75 596.563 553.377 591.19 546.75 591.19Z" fill="#36334A"/>
<path d="M448.75 591.19H446.75C440.123 591.19 434.75 596.563 434.75 603.19V614.19C434.75 620.818 440.123 626.19 446.75 626.19H448.75C455.377 626.19 460.75 620.818 460.75 614.19V603.19C460.75 596.563 455.377 591.19 448.75 591.19Z" fill="#36334A"/>
<path d="M496.75 643.19H494.75C488.123 643.19 482.75 648.563 482.75 655.19V666.19C482.75 672.818 488.123 678.19 494.75 678.19H496.75C503.377 678.19 508.75 672.818 508.75 666.19V655.19C508.75 648.563 503.377 643.19 496.75 643.19Z" fill="#36334A"/>
</svg>
